<svg xmlns="http://www.w3.org/2000/svg" xmlns:xlink="http://www.w3.org/1999/xlink" width="2000" zoomAndPan="magnify" viewBox="0 0 1500 1499.999933" height="2000" preserveAspectRatio="xMidYMid meet" version="1.0"><defs><clipPath id="ce687c2ccd"><path d="M 158.734375 48.203125 L 1341.484375 48.203125 L 1341.484375 1451.453125 L 158.734375 1451.453125 Z M 158.734375 48.203125 " clip-rule="nonzero"/></clipPath><clipPath id="0f26b6891e"><path d="M 292 804 L 892 804 L 892 1403.453125 L 292 1403.453125 Z M 292 804 " clip-rule="nonzero"/></clipPath><clipPath id="2324352eda"><path d="M 612 513 L 1183.484375 513 L 1183.484375 1104 L 612 1104 Z M 612 513 " clip-rule="nonzero"/></clipPath><clipPath id="f5df4840ae"><path d="M 0.734375 220 L 103 220 L 103 1104 L 0.734375 1104 Z M 0.734375 220 " clip-rule="nonzero"/></clipPath><clipPath id="3ac4719c86"><rect x="0" width="1184" y="0" height="1404"/></clipPath></defs><g clip-path="url(#ce687c2ccd)"><g transform="matrix(1, 0, 0, 1, 158, 48)"><g clip-path="url(#3ac4719c86)"><path fill="#51ade5" d="M 164.179688 1103.828125 L 164.179688 1103.351562 C 164.25 989.195312 208.757812 881.902344 289.519531 801.171875 C 370.34375 720.386719 477.804688 675.882812 592.109375 675.882812 C 706.414062 675.882812 813.875 720.386719 894.699219 801.171875 C 975.460938 881.890625 1019.957031 989.195312 1020.039062 1103.328125 L 1020.039062 1103.828125 L 931.109375 1103.828125 L 931.109375 1103.628906 C 931.109375 916.496094 779.339844 764.789062 592.109375 764.789062 C 404.886719 764.789062 253.113281 916.496094 253.113281 1103.628906 L 253.117188 1103.828125 L 164.179688 1103.828125 " fill-opacity="1" fill-rule="nonzero"/><g clip-path="url(#0f26b6891e)"><path fill="#51ade5" d="M 891.617188 1103.636719 C 891.617188 938.296875 757.523438 804.265625 592.113281 804.265625 C 426.703125 804.265625 292.613281 938.296875 292.613281 1103.636719 C 292.613281 1268.980469 426.703125 1403.015625 592.113281 1403.015625 C 757.523438 1403.015625 891.617188 1268.980469 891.617188 1103.636719 " fill-opacity="1" fill-rule="nonzero"/></g><path fill="#0e0f26" d="M 592.109375 1379.707031 C 439.820312 1379.707031 315.921875 1255.863281 315.921875 1103.628906 C 315.921875 951.410156 439.820312 827.566406 592.109375 827.566406 C 744.398438 827.566406 868.296875 951.410156 868.296875 1103.628906 C 868.296875 1255.863281 744.398438 1379.707031 592.109375 1379.707031 M 592.109375 817.722656 C 434.386719 817.722656 306.074219 945.988281 306.074219 1103.628906 C 306.074219 1261.289062 434.386719 1389.550781 592.109375 1389.550781 C 749.835938 1389.550781 878.144531 1261.289062 878.144531 1103.628906 C 878.144531 945.988281 749.835938 817.722656 592.109375 817.722656 " fill-opacity="1" fill-rule="nonzero"/><path fill="#356f95" d="M 592.109375 839.578125 L 578.304688 972.328125 L 537.1875 845.347656 L 551.292969 978.074219 L 484.660156 862.414062 L 526.066406 989.292969 L 436.835938 890.011719 L 503.730469 1005.515625 L 395.796875 926.953125 L 485.253906 1026.039062 L 363.335938 971.605469 L 471.445312 1049.9375 L 340.871094 1022.042969 L 462.914062 1076.1875 L 329.390625 1076.035156 L 460.03125 1103.632812 L 329.390625 1131.234375 L 462.914062 1131.09375 L 340.871094 1185.234375 L 471.445312 1157.339844 L 363.335938 1235.660156 L 485.253906 1181.242188 L 395.796875 1280.328125 L 503.730469 1201.746094 L 436.835938 1317.265625 L 526.066406 1217.972656 L 484.660156 1344.863281 L 551.292969 1229.203125 L 537.1875 1361.917969 L 578.304688 1234.933594 L 592.109375 1367.691406 L 605.917969 1234.933594 L 647.03125 1361.917969 L 632.933594 1229.203125 L 699.566406 1344.863281 L 658.152344 1217.972656 L 747.386719 1317.265625 L 680.492188 1201.746094 L 788.421875 1280.328125 L 698.972656 1181.242188 L 820.886719 1235.660156 L 712.773438 1157.339844 L 843.34375 1185.234375 L 721.308594 1131.09375 L 854.835938 1131.234375 L 724.191406 1103.632812 L 854.835938 1076.035156 L 721.308594 1076.1875 L 843.34375 1022.042969 L 712.773438 1049.9375 L 820.886719 971.605469 L 698.972656 1026.039062 L 788.421875 926.953125 L 680.492188 1005.515625 L 747.386719 890.011719 L 658.152344 989.292969 L 699.566406 862.414062 L 632.933594 978.074219 L 647.03125 845.347656 L 605.917969 972.328125 L 592.109375 839.578125 " fill-opacity="1" fill-rule="nonzero"/><path fill="#ffffff" d="M 588.105469 973.347656 C 587.625 977.976562 583.960938 981.636719 579.335938 982.125 C 578.988281 982.164062 578.640625 982.175781 578.300781 982.175781 C 574.070312 982.175781 570.257812 979.457031 568.929688 975.367188 L 556.996094 938.503906 L 561.09375 977.027344 C 561.582031 981.65625 558.765625 985.996094 554.339844 987.4375 C 553.335938 987.765625 552.304688 987.914062 551.292969 987.914062 C 547.847656 987.914062 544.554688 986.105469 542.753906 982.984375 L 523.417969 949.414062 L 535.433594 986.246094 C 536.878906 990.664062 535.023438 995.496094 530.992188 997.824219 C 529.453125 998.714844 527.757812 999.144531 526.070312 999.144531 C 523.347656 999.144531 520.664062 998.015625 518.734375 995.875 L 492.839844 967.066406 L 512.257812 1000.585938 C 514.589844 1004.617188 513.78125 1009.726562 510.320312 1012.835938 C 508.457031 1014.515625 506.097656 1015.367188 503.726562 1015.367188 C 501.695312 1015.367188 499.664062 1014.746094 497.929688 1013.476562 L 466.601562 990.675781 L 492.566406 1019.441406 C 495.6875 1022.890625 495.960938 1028.058594 493.21875 1031.820312 C 491.320312 1034.441406 488.324219 1035.878906 485.25 1035.878906 C 483.898438 1035.878906 482.53125 1035.601562 481.234375 1035.019531 L 445.847656 1019.230469 L 477.230469 1041.960938 C 480.996094 1044.691406 482.335938 1049.691406 480.445312 1053.941406 C 478.839844 1057.550781 475.273438 1059.78125 471.449219 1059.78125 C 470.765625 1059.78125 470.078125 1059.710938 469.386719 1059.570312 L 431.484375 1051.46875 L 466.90625 1067.191406 C 471.164062 1069.070312 473.515625 1073.679688 472.546875 1078.230469 C 471.582031 1082.78125 467.5625 1086.03125 462.910156 1086.03125 L 424.144531 1085.988281 L 462.066406 1094 C 466.617188 1094.960938 469.878906 1098.980469 469.878906 1103.628906 C 469.878906 1108.289062 466.617188 1112.308594 462.066406 1113.269531 L 424.140625 1121.28125 L 462.910156 1121.238281 C 467.5625 1121.238281 471.582031 1124.488281 472.546875 1129.039062 C 473.515625 1133.59375 471.164062 1138.203125 466.90625 1140.082031 L 431.488281 1155.804688 L 469.386719 1147.703125 C 470.074219 1147.5625 470.765625 1147.492188 471.449219 1147.492188 C 475.273438 1147.492188 478.839844 1149.722656 480.445312 1153.332031 C 482.335938 1157.582031 480.996094 1162.574219 477.230469 1165.3125 L 445.847656 1188.042969 L 481.234375 1172.242188 C 482.53125 1171.671875 483.898438 1171.394531 485.25 1171.394531 C 488.324219 1171.394531 491.320312 1172.832031 493.21875 1175.453125 C 495.960938 1179.214844 495.6875 1184.382812 492.566406 1187.832031 L 466.601562 1216.59375 L 497.929688 1193.792969 C 499.664062 1192.523438 501.699219 1191.902344 503.726562 1191.902344 C 506.097656 1191.902344 508.457031 1192.753906 510.320312 1194.433594 C 513.78125 1197.542969 514.589844 1202.652344 512.257812 1206.683594 L 492.835938 1240.214844 L 518.734375 1211.394531 C 520.664062 1209.253906 523.347656 1208.125 526.070312 1208.125 C 527.757812 1208.125 529.453125 1208.554688 530.992188 1209.445312 C 535.023438 1211.773438 536.878906 1216.605469 535.433594 1221.023438 L 523.417969 1257.859375 L 542.753906 1224.285156 C 544.554688 1221.164062 547.847656 1219.355469 551.292969 1219.355469 C 552.304688 1219.355469 553.335938 1219.503906 554.339844 1219.832031 C 558.765625 1221.273438 561.582031 1225.613281 561.09375 1230.242188 L 556.996094 1268.765625 L 568.929688 1231.902344 C 570.257812 1227.8125 574.070312 1225.09375 578.300781 1225.09375 C 578.640625 1225.09375 578.988281 1225.105469 579.335938 1225.144531 C 583.960938 1225.632812 587.625 1229.292969 588.105469 1233.921875 L 592.109375 1272.457031 L 596.125 1233.921875 C 596.601562 1229.292969 600.253906 1225.632812 604.886719 1225.144531 C 605.238281 1225.105469 605.578125 1225.09375 605.925781 1225.09375 C 610.148438 1225.09375 613.960938 1227.8125 615.292969 1231.902344 L 627.226562 1268.765625 L 623.125 1230.242188 C 622.636719 1225.613281 625.453125 1221.273438 629.878906 1219.832031 C 630.890625 1219.503906 631.910156 1219.355469 632.929688 1219.355469 C 636.367188 1219.355469 639.671875 1221.164062 641.460938 1224.285156 L 660.800781 1257.859375 L 648.785156 1221.023438 C 647.347656 1216.605469 649.195312 1211.773438 653.230469 1209.445312 C 654.769531 1208.554688 656.46875 1208.125 658.152344 1208.125 C 660.871094 1208.125 663.566406 1209.253906 665.484375 1211.394531 L 691.375 1240.214844 L 671.96875 1206.683594 C 669.632812 1202.652344 670.4375 1197.542969 673.898438 1194.433594 C 675.769531 1192.753906 678.117188 1191.902344 680.492188 1191.902344 C 682.523438 1191.902344 684.550781 1192.523438 686.292969 1193.792969 L 717.617188 1216.59375 L 691.65625 1187.832031 C 688.535156 1184.382812 688.265625 1179.214844 690.996094 1175.453125 C 692.894531 1172.832031 695.898438 1171.394531 698.96875 1171.394531 C 700.320312 1171.394531 701.691406 1171.671875 702.980469 1172.242188 L 738.378906 1188.042969 L 706.992188 1165.3125 C 703.21875 1162.574219 701.878906 1157.582031 703.773438 1153.332031 C 705.382812 1149.722656 708.945312 1147.492188 712.769531 1147.492188 C 713.457031 1147.492188 714.148438 1147.5625 714.839844 1147.703125 L 752.734375 1155.804688 L 717.308594 1140.082031 C 713.058594 1138.203125 710.703125 1133.59375 711.675781 1129.039062 C 712.636719 1124.488281 716.65625 1121.238281 721.3125 1121.238281 L 760.078125 1121.28125 L 722.160156 1113.269531 C 717.597656 1112.308594 714.339844 1108.289062 714.339844 1103.628906 C 714.339844 1098.980469 717.597656 1094.960938 722.160156 1094 L 760.066406 1085.988281 L 721.3125 1086.03125 C 716.65625 1086.03125 712.636719 1082.78125 711.675781 1078.230469 C 710.703125 1073.679688 713.058594 1069.070312 717.308594 1067.191406 L 752.734375 1051.46875 L 714.839844 1059.570312 C 714.148438 1059.710938 713.457031 1059.78125 712.769531 1059.78125 C 708.945312 1059.78125 705.382812 1057.550781 703.773438 1053.941406 C 701.878906 1049.691406 703.21875 1044.691406 706.992188 1041.960938 L 738.371094 1019.230469 L 702.980469 1035.019531 C 701.691406 1035.601562 700.320312 1035.878906 698.96875 1035.878906 C 695.898438 1035.878906 692.894531 1034.441406 690.996094 1031.820312 C 688.265625 1028.058594 688.535156 1022.890625 691.65625 1019.441406 L 717.617188 990.675781 L 686.292969 1013.476562 C 684.550781 1014.746094 682.523438 1015.367188 680.492188 1015.367188 C 678.117188 1015.367188 675.769531 1014.515625 673.898438 1012.835938 C 670.4375 1009.726562 669.632812 1004.617188 671.96875 1000.585938 L 691.375 967.066406 L 665.484375 995.875 C 663.566406 998.015625 660.871094 999.144531 658.152344 999.144531 C 656.46875 999.144531 654.769531 998.714844 653.230469 997.824219 C 649.195312 995.496094 647.347656 990.664062 648.785156 986.246094 L 660.800781 949.414062 L 641.460938 982.984375 C 639.671875 986.105469 636.367188 987.914062 632.929688 987.914062 C 631.910156 987.914062 630.890625 987.765625 629.878906 987.4375 C 625.453125 985.996094 622.636719 981.65625 623.125 977.027344 L 627.226562 938.503906 L 615.292969 975.367188 C 613.960938 979.457031 610.148438 982.175781 605.925781 982.175781 C 605.578125 982.175781 605.238281 982.164062 604.886719 982.125 C 600.253906 981.636719 596.601562 977.976562 596.125 973.347656 L 592.109375 934.816406 L 588.105469 973.347656 " fill-opacity="1" fill-rule="nonzero"/><path fill="#1c1c1d" d="M 698.070312 1103.628906 C 698.070312 1045.140625 650.625 997.726562 592.109375 997.726562 C 533.59375 997.726562 486.15625 1045.140625 486.15625 1103.628906 C 486.15625 1162.125 533.59375 1209.542969 592.109375 1209.542969 C 650.625 1209.542969 698.070312 1162.125 698.070312 1103.628906 " fill-opacity="1" fill-rule="nonzero"/><path fill="#ffffff" d="M 671.160156 1056.007812 C 671.160156 1047.398438 664.175781 1040.410156 655.5625 1040.410156 C 646.9375 1040.410156 639.953125 1047.398438 639.953125 1056.007812 C 639.953125 1064.621094 646.9375 1071.601562 655.5625 1071.601562 C 664.175781 1071.601562 671.160156 1064.621094 671.160156 1056.007812 " fill-opacity="1" fill-rule="nonzero"/><path fill="#ffffff" d="M 556.9375 1173.261719 C 556.9375 1167.363281 552.152344 1162.582031 546.253906 1162.582031 C 540.355469 1162.582031 535.570312 1167.363281 535.570312 1173.261719 C 535.570312 1179.164062 540.355469 1183.945312 546.253906 1183.945312 C 552.152344 1183.945312 556.9375 1179.164062 556.9375 1173.261719 " fill-opacity="1" fill-rule="nonzero"/><path fill="#1c1715" d="M 510.742188 641.035156 C 475.519531 647.144531 441.351562 657.242188 408.742188 671.0625 L 408.742188 342.265625 L 510.742188 342.265625 L 510.742188 641.035156 " fill-opacity="1" fill-rule="nonzero"/><g clip-path="url(#2324352eda)"><path fill="#1c1715" d="M 1061.886719 1103.828125 L 1061.886719 1103.628906 C 1061.886719 978.207031 1013.023438 860.28125 924.296875 771.589844 C 840.445312 687.777344 730.476562 639.574219 612.742188 634.523438 L 612.742188 513.121094 C 929.777344 523.988281 1183.464844 784.269531 1183.464844 1103.828125 L 1061.886719 1103.828125 " fill-opacity="1" fill-rule="nonzero"/></g><g clip-path="url(#f5df4840ae)"><path fill="#1c1715" d="M 102.75 1103.828125 L 0.75 1103.828125 C 0.75 1096.757812 0.75 220.949219 0.75 220.949219 L 102.75 220.949219 L 102.75 1103.828125 " fill-opacity="1" fill-rule="nonzero"/></g><path fill="#1c1715" d="M 306.746094 730.558594 C 290.394531 743.109375 274.742188 756.777344 259.925781 771.589844 C 239.339844 792.167969 220.925781 814.34375 204.746094 837.792969 L 204.746094 1.320312 L 306.746094 1.320312 L 306.746094 730.558594 " fill-opacity="1" fill-rule="nonzero"/></g></g></g></svg>