<svg xmlns="http://www.w3.org/2000/svg" xmlns:xlink="http://www.w3.org/1999/xlink" width="500" zoomAndPan="magnify" viewBox="0 0 375 187.499995" height="250" preserveAspectRatio="xMidYMid meet" version="1.0"><defs><g/><clipPath id="14083ffead"><path d="M 0.679688 1.222656 L 122.734375 1.222656 L 122.734375 145.878906 L 0.679688 145.878906 Z M 0.679688 1.222656 " clip-rule="nonzero"/></clipPath><clipPath id="0a1086cf69"><path d="M 30 82 L 93 82 L 93 144.769531 L 30 144.769531 Z M 30 82 " clip-rule="nonzero"/></clipPath><clipPath id="963c48e5b7"><path d="M 63 52 L 122.734375 52 L 122.734375 114 L 63 114 Z M 63 52 " clip-rule="nonzero"/></clipPath><clipPath id="9b7640d44f"><path d="M 0.679688 22 L 12 22 L 12 114 L 0.679688 114 Z M 0.679688 22 " clip-rule="nonzero"/></clipPath><clipPath id="f1709f97c7"><path d="M 21 0.222656 L 33 0.222656 L 33 87 L 21 87 Z M 21 0.222656 " clip-rule="nonzero"/></clipPath><clipPath id="49dca5dae8"><rect x="0" width="123" y="0" height="145"/></clipPath><clipPath id="26e9967189"><path d="M 138 54 L 330.222656 54 L 330.222656 81 L 138 81 Z M 138 54 " clip-rule="nonzero"/></clipPath><clipPath id="016a8fab63"><rect x="0" width="193" y="0" height="27"/></clipPath><clipPath id="be8742b611"><path d="M 60 4 L 65 4 L 65 12.738281 L 60 12.738281 Z M 60 4 " clip-rule="nonzero"/></clipPath><clipPath id="f5bd7412fb"><rect x="0" width="131" y="0" height="13"/></clipPath><clipPath id="30dc60e541"><rect x="0" width="331" y="0" height="146"/></clipPath></defs><g transform="matrix(1, 0, 0, 1, 14, 20)"><g clip-path="url(#30dc60e541)"><g clip-path="url(#14083ffead)"><g transform="matrix(1, 0, 0, 1, -0.000000000000003553, 1)"><g clip-path="url(#49dca5dae8)"><path fill="#51ade5" d="M 17.546875 113.8125 L 17.546875 113.761719 C 17.550781 101.976562 22.144531 90.902344 30.480469 82.570312 C 38.820312 74.230469 49.910156 69.636719 61.707031 69.636719 C 73.503906 69.636719 84.589844 74.230469 92.933594 82.570312 C 101.265625 90.902344 105.859375 101.976562 105.867188 113.757812 L 105.867188 113.8125 L 96.691406 113.8125 L 96.691406 113.789062 C 96.691406 94.472656 81.027344 78.8125 61.707031 78.8125 C 42.386719 78.8125 26.722656 94.472656 26.722656 113.789062 L 26.722656 113.8125 L 17.546875 113.8125 " fill-opacity="1" fill-rule="nonzero"/><g clip-path="url(#0a1086cf69)"><path fill="#51ade5" d="M 92.613281 113.792969 C 92.613281 96.722656 78.777344 82.886719 61.707031 82.886719 C 44.636719 82.886719 30.796875 96.722656 30.796875 113.792969 C 30.796875 130.859375 44.636719 144.695312 61.707031 144.695312 C 78.777344 144.695312 92.613281 130.859375 92.613281 113.792969 " fill-opacity="1" fill-rule="nonzero"/></g><path fill="#0e0f26" d="M 61.707031 142.289062 C 45.992188 142.289062 33.203125 129.503906 33.203125 113.789062 C 33.203125 98.078125 45.992188 85.292969 61.707031 85.292969 C 77.421875 85.292969 90.207031 98.078125 90.207031 113.789062 C 90.207031 129.503906 77.421875 142.289062 61.707031 142.289062 M 61.707031 84.277344 C 45.429688 84.277344 32.1875 97.519531 32.1875 113.789062 C 32.1875 130.066406 45.429688 143.304688 61.707031 143.304688 C 77.984375 143.304688 91.222656 130.066406 91.222656 113.789062 C 91.222656 97.519531 77.984375 84.277344 61.707031 84.277344 " fill-opacity="1" fill-rule="nonzero"/><path fill="#356f95" d="M 61.707031 86.535156 L 60.28125 100.238281 L 56.039062 87.128906 L 57.492188 100.828125 L 50.617188 88.890625 L 54.890625 101.988281 L 45.683594 91.738281 L 52.585938 103.664062 L 41.445312 95.554688 L 50.679688 105.78125 L 38.097656 100.164062 L 49.253906 108.246094 L 35.777344 105.367188 L 48.375 110.957031 L 34.59375 110.941406 L 48.074219 113.789062 L 34.59375 116.640625 L 48.375 116.625 L 35.777344 122.214844 L 49.253906 119.335938 L 38.097656 127.417969 L 50.679688 121.800781 L 41.445312 132.03125 L 52.585938 123.917969 L 45.683594 135.84375 L 54.890625 125.59375 L 50.617188 138.691406 L 57.492188 126.753906 L 56.039062 140.453125 L 60.28125 127.34375 L 61.707031 141.046875 L 63.132812 127.34375 L 67.375 140.453125 L 65.917969 126.753906 L 72.796875 138.691406 L 68.523438 125.59375 L 77.730469 135.84375 L 70.828125 123.917969 L 81.964844 132.03125 L 72.734375 121.800781 L 85.316406 127.417969 L 74.15625 119.335938 L 87.632812 122.214844 L 75.039062 116.625 L 88.820312 116.640625 L 75.335938 113.789062 L 88.820312 110.941406 L 75.039062 110.957031 L 87.632812 105.367188 L 74.15625 108.246094 L 85.316406 100.164062 L 72.734375 105.78125 L 81.964844 95.554688 L 70.828125 103.664062 L 77.730469 91.738281 L 68.523438 101.988281 L 72.796875 88.890625 L 65.917969 100.828125 L 67.375 87.128906 L 63.132812 100.238281 L 61.707031 86.535156 " fill-opacity="1" fill-rule="nonzero"/><path fill="#ffffff" d="M 61.292969 100.34375 C 61.242188 100.820312 60.867188 101.199219 60.386719 101.25 C 60.351562 101.253906 60.316406 101.253906 60.28125 101.253906 C 59.84375 101.253906 59.449219 100.972656 59.3125 100.550781 L 58.082031 96.746094 L 58.503906 100.722656 C 58.554688 101.199219 58.265625 101.648438 57.808594 101.796875 C 57.703125 101.832031 57.597656 101.847656 57.492188 101.847656 C 57.136719 101.847656 56.796875 101.660156 56.613281 101.335938 L 54.617188 97.871094 L 55.859375 101.671875 C 56.007812 102.128906 55.816406 102.628906 55.398438 102.867188 C 55.238281 102.960938 55.066406 103.003906 54.890625 103.003906 C 54.609375 103.003906 54.332031 102.886719 54.132812 102.667969 L 51.460938 99.695312 L 53.464844 103.152344 C 53.707031 103.570312 53.621094 104.097656 53.265625 104.417969 C 53.074219 104.59375 52.828125 104.679688 52.585938 104.679688 C 52.375 104.679688 52.167969 104.617188 51.988281 104.484375 L 48.753906 102.132812 L 51.433594 105.101562 C 51.753906 105.457031 51.785156 105.988281 51.5 106.378906 C 51.304688 106.648438 50.996094 106.796875 50.679688 106.796875 C 50.539062 106.796875 50.398438 106.769531 50.265625 106.707031 L 46.613281 105.078125 L 49.851562 107.425781 C 50.238281 107.707031 50.378906 108.222656 50.183594 108.660156 C 50.015625 109.035156 49.648438 109.265625 49.253906 109.265625 C 49.183594 109.265625 49.113281 109.257812 49.042969 109.242188 L 45.128906 108.40625 L 48.785156 110.027344 C 49.226562 110.222656 49.46875 110.699219 49.367188 111.167969 C 49.269531 111.636719 48.851562 111.972656 48.375 111.972656 L 44.371094 111.96875 L 48.285156 112.796875 C 48.753906 112.894531 49.09375 113.308594 49.09375 113.789062 C 49.09375 114.269531 48.753906 114.6875 48.285156 114.785156 L 44.371094 115.613281 L 48.375 115.609375 C 48.851562 115.609375 49.269531 115.945312 49.367188 116.414062 C 49.46875 116.882812 49.226562 117.359375 48.785156 117.554688 L 45.128906 119.175781 L 49.042969 118.339844 C 49.113281 118.324219 49.183594 118.316406 49.253906 118.316406 C 49.648438 118.316406 50.015625 118.546875 50.183594 118.921875 C 50.378906 119.359375 50.238281 119.875 49.851562 120.15625 L 46.613281 122.503906 L 50.265625 120.871094 C 50.398438 120.8125 50.539062 120.785156 50.679688 120.785156 C 50.996094 120.785156 51.304688 120.933594 51.5 121.203125 C 51.785156 121.59375 51.753906 122.125 51.433594 122.480469 L 48.753906 125.449219 L 51.988281 123.097656 C 52.167969 122.964844 52.375 122.902344 52.585938 122.902344 C 52.828125 122.902344 53.074219 122.988281 53.265625 123.164062 C 53.621094 123.484375 53.707031 124.011719 53.464844 124.429688 L 51.460938 127.890625 L 54.132812 124.914062 C 54.332031 124.695312 54.609375 124.578125 54.890625 124.578125 C 55.066406 124.578125 55.238281 124.621094 55.398438 124.714844 C 55.816406 124.953125 56.007812 125.453125 55.859375 125.910156 L 54.617188 129.710938 L 56.613281 126.246094 C 56.796875 125.921875 57.136719 125.734375 57.492188 125.734375 C 57.597656 125.734375 57.703125 125.75 57.808594 125.785156 C 58.265625 125.933594 58.554688 126.382812 58.503906 126.859375 L 58.082031 130.835938 L 59.3125 127.03125 C 59.449219 126.609375 59.84375 126.328125 60.28125 126.328125 C 60.316406 126.328125 60.351562 126.328125 60.386719 126.332031 C 60.867188 126.382812 61.242188 126.761719 61.292969 127.238281 L 61.707031 131.21875 L 62.121094 127.238281 C 62.167969 126.761719 62.546875 126.382812 63.023438 126.332031 C 63.0625 126.328125 63.097656 126.328125 63.132812 126.328125 C 63.566406 126.328125 63.960938 126.609375 64.097656 127.03125 L 65.332031 130.835938 L 64.90625 126.859375 C 64.855469 126.382812 65.148438 125.933594 65.605469 125.785156 C 65.707031 125.75 65.8125 125.734375 65.917969 125.734375 C 66.273438 125.734375 66.613281 125.921875 66.800781 126.246094 L 68.796875 129.710938 L 67.554688 125.910156 C 67.40625 125.453125 67.597656 124.953125 68.011719 124.714844 C 68.171875 124.621094 68.347656 124.578125 68.523438 124.578125 C 68.800781 124.578125 69.082031 124.695312 69.277344 124.914062 L 71.949219 127.890625 L 69.945312 124.429688 C 69.707031 124.011719 69.789062 123.484375 70.148438 123.164062 C 70.339844 122.988281 70.582031 122.902344 70.828125 122.902344 C 71.035156 122.902344 71.246094 122.964844 71.425781 123.097656 L 74.660156 125.449219 L 71.980469 122.480469 C 71.65625 122.125 71.628906 121.59375 71.910156 121.203125 C 72.105469 120.933594 72.417969 120.785156 72.734375 120.785156 C 72.875 120.785156 73.015625 120.8125 73.148438 120.871094 L 76.800781 122.503906 L 73.5625 120.15625 C 73.171875 119.875 73.035156 119.359375 73.230469 118.921875 C 73.394531 118.546875 73.761719 118.316406 74.15625 118.316406 C 74.230469 118.316406 74.300781 118.324219 74.371094 118.339844 L 78.28125 119.175781 L 74.625 117.554688 C 74.1875 117.359375 73.945312 116.882812 74.046875 116.414062 C 74.144531 115.945312 74.558594 115.609375 75.039062 115.609375 L 79.039062 115.613281 L 75.125 114.785156 C 74.65625 114.6875 74.320312 114.269531 74.320312 113.789062 C 74.320312 113.308594 74.65625 112.894531 75.125 112.796875 L 79.039062 111.96875 L 75.039062 111.972656 C 74.558594 111.972656 74.144531 111.636719 74.046875 111.167969 C 73.945312 110.699219 74.1875 110.222656 74.625 110.027344 L 78.28125 108.40625 L 74.371094 109.242188 C 74.300781 109.257812 74.230469 109.265625 74.15625 109.265625 C 73.761719 109.265625 73.394531 109.035156 73.230469 108.660156 C 73.035156 108.222656 73.171875 107.707031 73.5625 107.425781 L 76.800781 105.078125 L 73.148438 106.707031 C 73.015625 106.769531 72.875 106.796875 72.734375 106.796875 C 72.417969 106.796875 72.105469 106.648438 71.910156 106.378906 C 71.628906 105.988281 71.65625 105.457031 71.980469 105.101562 L 74.660156 102.132812 L 71.425781 104.484375 C 71.246094 104.617188 71.035156 104.679688 70.828125 104.679688 C 70.582031 104.679688 70.339844 104.59375 70.148438 104.417969 C 69.789062 104.097656 69.707031 103.570312 69.945312 103.152344 L 71.949219 99.695312 L 69.277344 102.667969 C 69.082031 102.886719 68.800781 103.003906 68.523438 103.003906 C 68.347656 103.003906 68.171875 102.960938 68.011719 102.867188 C 67.597656 102.628906 67.40625 102.128906 67.554688 101.671875 L 68.796875 97.871094 L 66.800781 101.335938 C 66.613281 101.660156 66.273438 101.847656 65.917969 101.847656 C 65.8125 101.847656 65.707031 101.832031 65.605469 101.796875 C 65.148438 101.648438 64.855469 101.199219 64.90625 100.722656 L 65.332031 96.746094 L 64.097656 100.550781 C 63.960938 100.972656 63.566406 101.253906 63.132812 101.253906 C 63.097656 101.253906 63.0625 101.253906 63.023438 101.25 C 62.546875 101.199219 62.167969 100.820312 62.121094 100.34375 L 61.707031 96.363281 L 61.292969 100.34375 " fill-opacity="1" fill-rule="nonzero"/><path fill="#1c1c1d" d="M 72.640625 113.789062 C 72.640625 107.753906 67.746094 102.859375 61.707031 102.859375 C 55.667969 102.859375 50.773438 107.753906 50.773438 113.789062 C 50.773438 119.828125 55.667969 124.722656 61.707031 124.722656 C 67.746094 124.722656 72.640625 119.828125 72.640625 113.789062 " fill-opacity="1" fill-rule="nonzero"/><path fill="#ffffff" d="M 69.863281 108.875 C 69.863281 107.984375 69.144531 107.265625 68.253906 107.265625 C 67.363281 107.265625 66.644531 107.984375 66.644531 108.875 C 66.644531 109.765625 67.363281 110.484375 68.253906 110.484375 C 69.144531 110.484375 69.863281 109.765625 69.863281 108.875 " fill-opacity="1" fill-rule="nonzero"/><path fill="#ffffff" d="M 58.078125 120.976562 C 58.078125 120.367188 57.582031 119.875 56.972656 119.875 C 56.367188 119.875 55.871094 120.367188 55.871094 120.976562 C 55.871094 121.585938 56.367188 122.082031 56.972656 122.082031 C 57.582031 122.082031 58.078125 121.585938 58.078125 120.976562 " fill-opacity="1" fill-rule="nonzero"/><path fill="#1c1715" d="M 53.308594 66.039062 C 49.675781 66.671875 46.148438 67.710938 42.785156 69.140625 L 42.785156 35.199219 L 53.308594 35.199219 L 53.308594 66.039062 " fill-opacity="1" fill-rule="nonzero"/><g clip-path="url(#963c48e5b7)"><path fill="#1c1715" d="M 110.1875 113.8125 L 110.1875 113.789062 C 110.1875 100.84375 105.144531 88.671875 95.988281 79.515625 C 87.332031 70.863281 75.984375 65.890625 63.835938 65.367188 L 63.835938 52.835938 C 96.550781 53.957031 122.730469 80.824219 122.730469 113.8125 L 110.1875 113.8125 " fill-opacity="1" fill-rule="nonzero"/></g><g clip-path="url(#9b7640d44f)"><path fill="#1c1715" d="M 11.207031 113.8125 L 0.679688 113.8125 C 0.679688 113.082031 0.679688 22.675781 0.679688 22.675781 L 11.207031 22.675781 L 11.207031 113.8125 " fill-opacity="1" fill-rule="nonzero"/></g><g clip-path="url(#f1709f97c7)"><path fill="#1c1715" d="M 32.257812 75.28125 C 30.570312 76.574219 28.953125 77.988281 27.425781 79.515625 C 25.300781 81.640625 23.402344 83.929688 21.730469 86.347656 L 21.730469 0.00390625 L 32.257812 0.00390625 L 32.257812 75.28125 " fill-opacity="1" fill-rule="nonzero"/></g></g></g></g><g clip-path="url(#26e9967189)"><g transform="matrix(1, 0, 0, 1, 138, 54)"><g clip-path="url(#016a8fab63)"><g fill="#51ade5" fill-opacity="1"><g transform="translate(1.055471, 20.545306)"><g><path d="M 1.078125 -7.578125 C 1.078125 -6.765625 1.234375 -5.898438 1.546875 -4.984375 C 1.859375 -4.066406 2.34375 -3.21875 3 -2.4375 C 3.664062 -1.664062 4.507812 -1.019531 5.53125 -0.5 C 6.5625 0.0078125 7.789062 0.265625 9.21875 0.265625 C 10.1875 0.265625 11.0625 0.144531 11.84375 -0.09375 C 12.632812 -0.332031 13.34375 -0.65625 13.96875 -1.0625 C 14.59375 -1.46875 15.132812 -1.929688 15.59375 -2.453125 C 16.0625 -2.984375 16.441406 -3.539062 16.734375 -4.125 C 17.035156 -4.707031 17.257812 -5.296875 17.40625 -5.890625 C 17.5625 -6.484375 17.640625 -7.046875 17.640625 -7.578125 C 17.640625 -8.378906 17.472656 -9.238281 17.140625 -10.15625 C 16.804688 -11.070312 16.289062 -11.921875 15.59375 -12.703125 C 14.90625 -13.484375 14.03125 -14.128906 12.96875 -14.640625 C 11.914062 -15.148438 10.664062 -15.40625 9.21875 -15.40625 C 7.789062 -15.40625 6.5625 -15.148438 5.53125 -14.640625 C 4.507812 -14.140625 3.664062 -13.503906 3 -12.734375 C 2.34375 -11.960938 1.859375 -11.113281 1.546875 -10.1875 C 1.234375 -9.269531 1.078125 -8.398438 1.078125 -7.578125 Z M 3.203125 -7.578125 C 3.203125 -8.585938 3.359375 -9.515625 3.671875 -10.359375 C 3.984375 -11.203125 4.40625 -11.925781 4.9375 -12.53125 C 5.476562 -13.132812 6.117188 -13.601562 6.859375 -13.9375 C 7.597656 -14.28125 8.398438 -14.453125 9.265625 -14.453125 C 10.109375 -14.453125 10.910156 -14.28125 11.671875 -13.9375 C 12.429688 -13.601562 13.09375 -13.132812 13.65625 -12.53125 C 14.226562 -11.925781 14.679688 -11.203125 15.015625 -10.359375 C 15.347656 -9.515625 15.515625 -8.585938 15.515625 -7.578125 C 15.515625 -6.566406 15.347656 -5.640625 15.015625 -4.796875 C 14.679688 -3.953125 14.226562 -3.222656 13.65625 -2.609375 C 13.09375 -2.003906 12.429688 -1.53125 11.671875 -1.1875 C 10.910156 -0.851562 10.109375 -0.6875 9.265625 -0.6875 C 8.398438 -0.6875 7.597656 -0.851562 6.859375 -1.1875 C 6.117188 -1.53125 5.476562 -2.003906 4.9375 -2.609375 C 4.40625 -3.222656 3.984375 -3.953125 3.671875 -4.796875 C 3.359375 -5.640625 3.203125 -6.566406 3.203125 -7.578125 Z M 3.203125 -7.578125 "/></g></g></g><g fill="#51ade5" fill-opacity="1"><g transform="translate(19.768379, 20.545306)"><g><path d="M 14.796875 -15.140625 L 14.796875 -3.578125 L 14.71875 -3.578125 L 2.703125 -15.40625 L 2.59375 -15.40625 L 2.59375 0 L 3.59375 0 L 3.59375 -11.578125 L 3.671875 -11.578125 L 15.6875 0.265625 L 15.796875 0.265625 L 15.796875 -15.140625 Z M 14.796875 -15.140625 "/></g></g></g><g fill="#51ade5" fill-opacity="1"><g transform="translate(38.15679, 20.545306)"><g><path d="M 11.015625 -4.453125 L 13.09375 0 L 15.1875 0 L 8.140625 -15.140625 L 7.0625 -15.140625 L 0.65625 0 L 1.640625 0 L 3.546875 -4.453125 Z M 10.5625 -5.4375 L 3.953125 -5.4375 L 7.078125 -12.71875 L 7.15625 -12.71875 Z M 10.5625 -5.4375 "/></g></g></g><g fill="#51ade5" fill-opacity="1"><g transform="translate(53.99246, 20.545306)"><g/></g></g><g fill="#51ade5" fill-opacity="1"><g transform="translate(61.564156, 20.545306)"><g><path d="M 11.015625 -4.453125 L 13.09375 0 L 15.1875 0 L 8.140625 -15.140625 L 7.0625 -15.140625 L 0.65625 0 L 1.640625 0 L 3.546875 -4.453125 Z M 10.5625 -5.4375 L 3.953125 -5.4375 L 7.078125 -12.71875 L 7.15625 -12.71875 Z M 10.5625 -5.4375 "/></g></g></g><g fill="#51ade5" fill-opacity="1"><g transform="translate(77.399826, 20.545306)"><g><path d="M 14.796875 -15.140625 L 14.796875 -3.578125 L 14.71875 -3.578125 L 2.703125 -15.40625 L 2.59375 -15.40625 L 2.59375 0 L 3.59375 0 L 3.59375 -11.578125 L 3.671875 -11.578125 L 15.6875 0.265625 L 15.796875 0.265625 L 15.796875 -15.140625 Z M 14.796875 -15.140625 "/></g></g></g><g fill="#51ade5" fill-opacity="1"><g transform="translate(95.788238, 20.545306)"><g><path d="M 11.015625 -4.453125 L 13.09375 0 L 15.1875 0 L 8.140625 -15.140625 L 7.0625 -15.140625 L 0.65625 0 L 1.640625 0 L 3.546875 -4.453125 Z M 10.5625 -5.4375 L 3.953125 -5.4375 L 7.078125 -12.71875 L 7.15625 -12.71875 Z M 10.5625 -5.4375 "/></g></g></g><g fill="#51ade5" fill-opacity="1"><g transform="translate(111.623908, 20.545306)"><g><path d="M 2.59375 0 L 2.59375 -15.140625 L 4.5625 -15.140625 L 4.5625 -1.1875 L 12.375 -1.1875 L 12.375 0 Z M 2.59375 0 "/></g></g></g><g fill="#51ade5" fill-opacity="1"><g transform="translate(124.647231, 20.545306)"><g><path d="M 0.65625 -15.140625 L 5.890625 -5.734375 L 5.890625 0 L 7.859375 0 L 7.859375 -5.921875 L 13.171875 -15.140625 L 12.015625 -15.140625 L 7.375 -7.15625 L 7.296875 -7.15625 L 2.875 -15.140625 Z M 0.65625 -15.140625 "/></g></g></g><g fill="#51ade5" fill-opacity="1"><g transform="translate(138.470991, 20.545306)"><g><path d="M 8.203125 0 L 8.203125 -13.953125 L 14 -13.953125 L 14 -15.140625 L 0.4375 -15.140625 L 0.4375 -13.953125 L 6.234375 -13.953125 L 6.234375 0 Z M 8.203125 0 "/></g></g></g><g fill="#51ade5" fill-opacity="1"><g transform="translate(152.900475, 20.545306)"><g><path d="M 3.46875 -15.140625 L 3.46875 0 L 5.4375 0 L 5.4375 -15.140625 Z M 3.46875 -15.140625 "/></g></g></g><g fill="#51ade5" fill-opacity="1"><g transform="translate(161.791819, 20.545306)"><g><path d="M 15.34375 -2.796875 C 13.875 -1.410156 12.128906 -0.71875 10.109375 -0.71875 C 8.984375 -0.71875 7.988281 -0.910156 7.125 -1.296875 C 6.257812 -1.679688 5.535156 -2.195312 4.953125 -2.84375 C 4.378906 -3.5 3.941406 -4.253906 3.640625 -5.109375 C 3.347656 -5.960938 3.203125 -6.847656 3.203125 -7.765625 C 3.203125 -8.742188 3.359375 -9.640625 3.671875 -10.453125 C 3.984375 -11.273438 4.421875 -11.976562 4.984375 -12.5625 C 5.546875 -13.15625 6.210938 -13.617188 6.984375 -13.953125 C 7.753906 -14.285156 8.59375 -14.453125 9.5 -14.453125 C 10.125 -14.453125 10.691406 -14.378906 11.203125 -14.234375 C 11.710938 -14.085938 12.164062 -13.898438 12.5625 -13.671875 C 12.957031 -13.441406 13.28125 -13.175781 13.53125 -12.875 C 13.789062 -12.582031 13.96875 -12.285156 14.0625 -11.984375 L 15.671875 -11.984375 C 15.453125 -12.472656 15.171875 -12.925781 14.828125 -13.34375 C 14.492188 -13.769531 14.070312 -14.132812 13.5625 -14.4375 C 13.0625 -14.738281 12.472656 -14.972656 11.796875 -15.140625 C 11.117188 -15.316406 10.347656 -15.40625 9.484375 -15.40625 C 8.222656 -15.40625 7.078125 -15.222656 6.046875 -14.859375 C 5.015625 -14.503906 4.128906 -13.988281 3.390625 -13.3125 C 2.660156 -12.644531 2.09375 -11.835938 1.6875 -10.890625 C 1.28125 -9.953125 1.078125 -8.894531 1.078125 -7.71875 C 1.078125 -6.707031 1.238281 -5.722656 1.5625 -4.765625 C 1.894531 -3.804688 2.398438 -2.957031 3.078125 -2.21875 C 3.753906 -1.476562 4.617188 -0.878906 5.671875 -0.421875 C 6.722656 0.0351562 7.976562 0.265625 9.4375 0.265625 C 10.351562 0.265625 11.175781 0.175781 11.90625 0 C 12.632812 -0.175781 13.269531 -0.390625 13.8125 -0.640625 C 14.351562 -0.890625 14.804688 -1.15625 15.171875 -1.4375 C 15.535156 -1.726562 15.8125 -1.984375 16 -2.203125 Z M 15.34375 -2.796875 "/></g></g></g><g fill="#51ade5" fill-opacity="1"><g transform="translate(178.211591, 20.545306)"><g><path d="M 0.796875 -3.828125 C 0.828125 -3.210938 0.988281 -2.648438 1.28125 -2.140625 C 1.582031 -1.640625 1.988281 -1.210938 2.5 -0.859375 C 3.007812 -0.503906 3.609375 -0.226562 4.296875 -0.03125 C 4.992188 0.164062 5.753906 0.265625 6.578125 0.265625 C 7.410156 0.265625 8.160156 0.164062 8.828125 -0.03125 C 9.503906 -0.238281 10.082031 -0.53125 10.5625 -0.90625 C 11.039062 -1.28125 11.40625 -1.734375 11.65625 -2.265625 C 11.914062 -2.804688 12.046875 -3.398438 12.046875 -4.046875 C 12.046875 -4.941406 11.820312 -5.671875 11.375 -6.234375 C 10.9375 -6.804688 10.378906 -7.285156 9.703125 -7.671875 C 9.035156 -8.054688 8.304688 -8.378906 7.515625 -8.640625 C 6.734375 -8.898438 6.003906 -9.171875 5.328125 -9.453125 C 4.660156 -9.742188 4.101562 -10.078125 3.65625 -10.453125 C 3.207031 -10.828125 2.984375 -11.328125 2.984375 -11.953125 C 2.984375 -12.296875 3.054688 -12.617188 3.203125 -12.921875 C 3.359375 -13.222656 3.582031 -13.484375 3.875 -13.703125 C 4.175781 -13.929688 4.539062 -14.113281 4.96875 -14.25 C 5.40625 -14.382812 5.90625 -14.453125 6.46875 -14.453125 C 7.40625 -14.453125 8.203125 -14.253906 8.859375 -13.859375 C 9.515625 -13.460938 9.898438 -12.835938 10.015625 -11.984375 L 11.484375 -11.984375 C 11.398438 -12.523438 11.207031 -13.003906 10.90625 -13.421875 C 10.601562 -13.847656 10.21875 -14.207031 9.75 -14.5 C 9.289062 -14.800781 8.769531 -15.023438 8.1875 -15.171875 C 7.601562 -15.328125 6.992188 -15.40625 6.359375 -15.40625 C 5.691406 -15.40625 5.0625 -15.316406 4.46875 -15.140625 C 3.875 -14.972656 3.347656 -14.722656 2.890625 -14.390625 C 2.429688 -14.054688 2.066406 -13.632812 1.796875 -13.125 C 1.535156 -12.625 1.40625 -12.050781 1.40625 -11.40625 C 1.40625 -10.550781 1.617188 -9.863281 2.046875 -9.34375 C 2.484375 -8.820312 3.03125 -8.390625 3.6875 -8.046875 C 4.34375 -7.703125 5.050781 -7.40625 5.8125 -7.15625 C 6.582031 -6.914062 7.296875 -6.640625 7.953125 -6.328125 C 8.609375 -6.015625 9.148438 -5.632812 9.578125 -5.1875 C 10.015625 -4.738281 10.234375 -4.140625 10.234375 -3.390625 C 10.234375 -2.453125 9.890625 -1.765625 9.203125 -1.328125 C 8.523438 -0.898438 7.613281 -0.6875 6.46875 -0.6875 C 5.5625 -0.6875 4.832031 -0.804688 4.28125 -1.046875 C 3.738281 -1.285156 3.320312 -1.570312 3.03125 -1.90625 C 2.738281 -2.238281 2.539062 -2.582031 2.4375 -2.9375 C 2.34375 -3.289062 2.285156 -3.585938 2.265625 -3.828125 Z M 0.796875 -3.828125 "/></g></g></g></g></g></g><g transform="matrix(1, 0, 0, 1, 169, 80)"><g clip-path="url(#f5bd7412fb)"><g fill="#000000" fill-opacity="1"><g transform="translate(0.848406, 9.804697)"><g><path d="M 2.203125 -3.046875 C 2.378906 -2.992188 2.570312 -2.953125 2.78125 -2.921875 C 2.988281 -2.890625 3.21875 -2.875 3.46875 -2.875 C 3.894531 -2.875 4.269531 -2.929688 4.59375 -3.046875 C 4.925781 -3.171875 5.203125 -3.332031 5.421875 -3.53125 C 5.640625 -3.738281 5.800781 -3.976562 5.90625 -4.25 C 6.019531 -4.519531 6.078125 -4.804688 6.078125 -5.109375 C 6.078125 -5.398438 6.03125 -5.679688 5.9375 -5.953125 C 5.84375 -6.222656 5.695312 -6.457031 5.5 -6.65625 C 5.300781 -6.851562 5.050781 -7.007812 4.75 -7.125 C 4.445312 -7.25 4.09375 -7.3125 3.6875 -7.3125 L 1.25 -7.3125 L 1.25 0 L 2.203125 0 Z M 2.203125 -6.84375 L 3.296875 -6.84375 C 3.585938 -6.84375 3.84375 -6.789062 4.0625 -6.6875 C 4.289062 -6.582031 4.476562 -6.441406 4.625 -6.265625 C 4.769531 -6.097656 4.878906 -5.910156 4.953125 -5.703125 C 5.023438 -5.492188 5.0625 -5.285156 5.0625 -5.078125 C 5.0625 -4.867188 5.023438 -4.660156 4.953125 -4.453125 C 4.890625 -4.253906 4.785156 -4.070312 4.640625 -3.90625 C 4.492188 -3.738281 4.304688 -3.601562 4.078125 -3.5 C 3.859375 -3.394531 3.59375 -3.34375 3.28125 -3.34375 C 3.070312 -3.34375 2.875 -3.347656 2.6875 -3.359375 C 2.507812 -3.378906 2.347656 -3.414062 2.203125 -3.46875 Z M 2.203125 -6.84375 "/></g></g></g><g fill="#000000" fill-opacity="1"><g transform="translate(7.248561, 9.804697)"><g><path d="M 0.828125 -5.21875 L 0.828125 0 L 1.71875 0 L 1.71875 -3.15625 C 1.71875 -3.4375 1.75 -3.675781 1.8125 -3.875 C 1.882812 -4.070312 1.972656 -4.234375 2.078125 -4.359375 C 2.179688 -4.484375 2.296875 -4.570312 2.421875 -4.625 C 2.546875 -4.6875 2.664062 -4.71875 2.78125 -4.71875 C 2.945312 -4.71875 3.097656 -4.664062 3.234375 -4.5625 C 3.367188 -4.457031 3.46875 -4.359375 3.53125 -4.265625 L 3.875 -4.921875 C 3.8125 -5.003906 3.738281 -5.070312 3.65625 -5.125 C 3.570312 -5.175781 3.484375 -5.21875 3.390625 -5.25 C 3.304688 -5.28125 3.226562 -5.300781 3.15625 -5.3125 C 3.082031 -5.320312 3.03125 -5.328125 3 -5.328125 C 2.707031 -5.328125 2.460938 -5.25 2.265625 -5.09375 C 2.066406 -4.9375 1.90625 -4.703125 1.78125 -4.390625 L 1.71875 -4.390625 L 1.71875 -5.21875 Z M 0.828125 -5.21875 "/></g></g></g><g fill="#000000" fill-opacity="1"><g transform="translate(11.236916, 9.804697)"><g><path d="M 5.46875 -2.375 L 5.46875 -2.59375 C 5.46875 -3.0625 5.398438 -3.46875 5.265625 -3.8125 C 5.140625 -4.15625 4.960938 -4.4375 4.734375 -4.65625 C 4.503906 -4.875 4.238281 -5.039062 3.9375 -5.15625 C 3.644531 -5.269531 3.332031 -5.328125 3 -5.328125 C 2.644531 -5.328125 2.316406 -5.265625 2.015625 -5.140625 C 1.710938 -5.015625 1.445312 -4.835938 1.21875 -4.609375 C 1 -4.378906 0.828125 -4.097656 0.703125 -3.765625 C 0.578125 -3.429688 0.515625 -3.054688 0.515625 -2.640625 C 0.515625 -2.296875 0.566406 -1.957031 0.671875 -1.625 C 0.785156 -1.289062 0.953125 -0.992188 1.171875 -0.734375 C 1.390625 -0.472656 1.664062 -0.265625 2 -0.109375 C 2.34375 0.046875 2.742188 0.125 3.203125 0.125 C 3.648438 0.125 4.0625 0.046875 4.4375 -0.109375 C 4.8125 -0.265625 5.140625 -0.488281 5.421875 -0.78125 L 5.078125 -1.109375 C 4.929688 -0.984375 4.796875 -0.867188 4.671875 -0.765625 C 4.546875 -0.660156 4.414062 -0.570312 4.28125 -0.5 C 4.144531 -0.4375 4.003906 -0.382812 3.859375 -0.34375 C 3.722656 -0.3125 3.566406 -0.296875 3.390625 -0.296875 C 3.191406 -0.296875 2.984375 -0.320312 2.765625 -0.375 C 2.546875 -0.4375 2.34375 -0.539062 2.15625 -0.6875 C 1.96875 -0.84375 1.8125 -1.054688 1.6875 -1.328125 C 1.5625 -1.609375 1.5 -1.957031 1.5 -2.375 Z M 1.5 -2.796875 C 1.5 -3.078125 1.53125 -3.347656 1.59375 -3.609375 C 1.65625 -3.867188 1.742188 -4.097656 1.859375 -4.296875 C 1.984375 -4.503906 2.140625 -4.664062 2.328125 -4.78125 C 2.515625 -4.90625 2.738281 -4.96875 3 -4.96875 C 3.488281 -4.96875 3.867188 -4.773438 4.140625 -4.390625 C 4.421875 -4.003906 4.5625 -3.472656 4.5625 -2.796875 Z M 1.5 -2.796875 "/></g></g></g><g fill="#000000" fill-opacity="1"><g transform="translate(17.229887, 9.804697)"><g><path d="M 5.46875 -7.3125 L 4.578125 -7.3125 L 4.578125 -4.359375 L 4.546875 -4.359375 C 4.472656 -4.546875 4.378906 -4.695312 4.265625 -4.8125 C 4.148438 -4.9375 4.019531 -5.035156 3.875 -5.109375 C 3.726562 -5.191406 3.570312 -5.25 3.40625 -5.28125 C 3.238281 -5.3125 3.070312 -5.328125 2.90625 -5.328125 C 2.5625 -5.328125 2.242188 -5.265625 1.953125 -5.140625 C 1.660156 -5.015625 1.40625 -4.832031 1.1875 -4.59375 C 0.976562 -4.351562 0.8125 -4.066406 0.6875 -3.734375 C 0.570312 -3.398438 0.515625 -3.03125 0.515625 -2.625 C 0.515625 -2.207031 0.570312 -1.828125 0.6875 -1.484375 C 0.8125 -1.148438 0.976562 -0.863281 1.1875 -0.625 C 1.40625 -0.382812 1.660156 -0.195312 1.953125 -0.0625 C 2.242188 0.0625 2.5625 0.125 2.90625 0.125 C 3.726562 0.125 4.273438 -0.195312 4.546875 -0.84375 L 4.578125 -0.84375 L 4.578125 0 L 5.46875 0 Z M 4.578125 -2.09375 C 4.578125 -1.863281 4.539062 -1.644531 4.46875 -1.4375 C 4.394531 -1.226562 4.289062 -1.046875 4.15625 -0.890625 C 4.03125 -0.742188 3.878906 -0.628906 3.703125 -0.546875 C 3.523438 -0.460938 3.332031 -0.421875 3.125 -0.421875 C 2.90625 -0.421875 2.695312 -0.457031 2.5 -0.53125 C 2.3125 -0.613281 2.144531 -0.738281 2 -0.90625 C 1.851562 -1.082031 1.734375 -1.3125 1.640625 -1.59375 C 1.554688 -1.875 1.515625 -2.207031 1.515625 -2.59375 C 1.515625 -2.988281 1.554688 -3.328125 1.640625 -3.609375 C 1.734375 -3.890625 1.851562 -4.117188 2 -4.296875 C 2.144531 -4.472656 2.316406 -4.597656 2.515625 -4.671875 C 2.710938 -4.753906 2.914062 -4.796875 3.125 -4.796875 C 3.320312 -4.796875 3.507812 -4.753906 3.6875 -4.671875 C 3.863281 -4.597656 4.015625 -4.484375 4.140625 -4.328125 C 4.273438 -4.171875 4.378906 -3.976562 4.453125 -3.75 C 4.535156 -3.53125 4.578125 -3.28125 4.578125 -3 Z M 4.578125 -2.09375 "/></g></g></g><g fill="#000000" fill-opacity="1"><g transform="translate(23.536074, 9.804697)"><g><path d="M 1.171875 -5.21875 L 1.171875 0 L 2.0625 0 L 2.0625 -5.21875 Z M 1.046875 -6.875 C 1.046875 -6.71875 1.097656 -6.582031 1.203125 -6.46875 C 1.316406 -6.351562 1.453125 -6.296875 1.609375 -6.296875 C 1.765625 -6.296875 1.894531 -6.351562 2 -6.46875 C 2.113281 -6.582031 2.171875 -6.71875 2.171875 -6.875 C 2.171875 -7.019531 2.113281 -7.148438 2 -7.265625 C 1.894531 -7.378906 1.765625 -7.4375 1.609375 -7.4375 C 1.453125 -7.4375 1.316406 -7.378906 1.203125 -7.265625 C 1.097656 -7.148438 1.046875 -7.019531 1.046875 -6.875 Z M 1.046875 -6.875 "/></g></g></g><g fill="#000000" fill-opacity="1"><g transform="translate(26.751813, 9.804697)"><g><path d="M 3.453125 -0.421875 C 3.203125 -0.421875 2.957031 -0.457031 2.71875 -0.53125 C 2.488281 -0.601562 2.285156 -0.722656 2.109375 -0.890625 C 1.929688 -1.066406 1.785156 -1.296875 1.671875 -1.578125 C 1.566406 -1.859375 1.515625 -2.207031 1.515625 -2.625 C 1.515625 -3.039062 1.570312 -3.394531 1.6875 -3.6875 C 1.8125 -3.988281 1.960938 -4.226562 2.140625 -4.40625 C 2.316406 -4.582031 2.507812 -4.710938 2.71875 -4.796875 C 2.9375 -4.878906 3.144531 -4.921875 3.34375 -4.921875 C 3.65625 -4.921875 3.929688 -4.835938 4.171875 -4.671875 C 4.410156 -4.503906 4.566406 -4.296875 4.640625 -4.046875 L 5.359375 -4.046875 C 5.296875 -4.296875 5.1875 -4.503906 5.03125 -4.671875 C 4.875 -4.835938 4.695312 -4.96875 4.5 -5.0625 C 4.300781 -5.164062 4.085938 -5.234375 3.859375 -5.265625 C 3.640625 -5.304688 3.425781 -5.328125 3.21875 -5.328125 C 2.78125 -5.328125 2.394531 -5.253906 2.0625 -5.109375 C 1.726562 -4.972656 1.441406 -4.78125 1.203125 -4.53125 C 0.972656 -4.289062 0.800781 -4.003906 0.6875 -3.671875 C 0.570312 -3.347656 0.515625 -3.003906 0.515625 -2.640625 C 0.515625 -2.253906 0.578125 -1.890625 0.703125 -1.546875 C 0.828125 -1.210938 1.003906 -0.921875 1.234375 -0.671875 C 1.472656 -0.421875 1.753906 -0.222656 2.078125 -0.078125 C 2.410156 0.0546875 2.78125 0.125 3.1875 0.125 C 3.644531 0.125 4.046875 0.0507812 4.390625 -0.09375 C 4.742188 -0.25 5.035156 -0.421875 5.265625 -0.609375 L 4.96875 -1 C 4.726562 -0.800781 4.484375 -0.65625 4.234375 -0.5625 C 3.992188 -0.46875 3.734375 -0.421875 3.453125 -0.421875 Z M 3.453125 -0.421875 "/></g></g></g><g fill="#000000" fill-opacity="1"><g transform="translate(32.431561, 9.804697)"><g><path d="M 0.3125 -4.796875 L 0.3125 -5.21875 L 1.21875 -5.21875 L 1.21875 -6.828125 L 2.109375 -6.828125 L 2.109375 -5.21875 L 3.375 -5.21875 L 3.375 -4.796875 L 2.109375 -4.796875 L 2.109375 -1.34375 C 2.109375 -1.25 2.109375 -1.148438 2.109375 -1.046875 C 2.117188 -0.941406 2.140625 -0.84375 2.171875 -0.75 C 2.210938 -0.65625 2.269531 -0.578125 2.34375 -0.515625 C 2.414062 -0.453125 2.519531 -0.421875 2.65625 -0.421875 C 2.820312 -0.421875 2.957031 -0.484375 3.0625 -0.609375 C 3.175781 -0.734375 3.269531 -0.867188 3.34375 -1.015625 L 3.828125 -0.515625 C 3.484375 -0.171875 3.097656 0 2.671875 0 C 2.492188 0 2.316406 -0.03125 2.140625 -0.09375 C 1.960938 -0.15625 1.804688 -0.25 1.671875 -0.375 C 1.535156 -0.507812 1.425781 -0.675781 1.34375 -0.875 C 1.257812 -1.070312 1.21875 -1.3125 1.21875 -1.59375 L 1.21875 -4.796875 Z M 0.3125 -4.796875 "/></g></g></g><g fill="#000000" fill-opacity="1"><g transform="translate(36.346827, 9.804697)"><g><path d="M 0.828125 -0.453125 C 0.828125 -0.597656 0.882812 -0.726562 1 -0.84375 C 1.113281 -0.957031 1.25 -1.015625 1.40625 -1.015625 C 1.550781 -1.015625 1.679688 -0.957031 1.796875 -0.84375 C 1.910156 -0.726562 1.96875 -0.597656 1.96875 -0.453125 C 1.96875 -0.296875 1.910156 -0.160156 1.796875 -0.046875 C 1.679688 0.0546875 1.550781 0.109375 1.40625 0.109375 C 1.25 0.109375 1.113281 0.0546875 1 -0.046875 C 0.882812 -0.160156 0.828125 -0.296875 0.828125 -0.453125 Z M 0.828125 -0.453125 "/></g></g></g><g fill="#000000" fill-opacity="1"><g transform="translate(39.144939, 9.804697)"><g/></g></g><g fill="#000000" fill-opacity="1"><g transform="translate(42.799191, 9.804697)"><g><path d="M 2.203125 -3.046875 C 2.378906 -2.992188 2.570312 -2.953125 2.78125 -2.921875 C 2.988281 -2.890625 3.21875 -2.875 3.46875 -2.875 C 3.894531 -2.875 4.269531 -2.929688 4.59375 -3.046875 C 4.925781 -3.171875 5.203125 -3.332031 5.421875 -3.53125 C 5.640625 -3.738281 5.800781 -3.976562 5.90625 -4.25 C 6.019531 -4.519531 6.078125 -4.804688 6.078125 -5.109375 C 6.078125 -5.398438 6.03125 -5.679688 5.9375 -5.953125 C 5.84375 -6.222656 5.695312 -6.457031 5.5 -6.65625 C 5.300781 -6.851562 5.050781 -7.007812 4.75 -7.125 C 4.445312 -7.25 4.09375 -7.3125 3.6875 -7.3125 L 1.25 -7.3125 L 1.25 0 L 2.203125 0 Z M 2.203125 -6.84375 L 3.296875 -6.84375 C 3.585938 -6.84375 3.84375 -6.789062 4.0625 -6.6875 C 4.289062 -6.582031 4.476562 -6.441406 4.625 -6.265625 C 4.769531 -6.097656 4.878906 -5.910156 4.953125 -5.703125 C 5.023438 -5.492188 5.0625 -5.285156 5.0625 -5.078125 C 5.0625 -4.867188 5.023438 -4.660156 4.953125 -4.453125 C 4.890625 -4.253906 4.785156 -4.070312 4.640625 -3.90625 C 4.492188 -3.738281 4.304688 -3.601562 4.078125 -3.5 C 3.859375 -3.394531 3.59375 -3.34375 3.28125 -3.34375 C 3.070312 -3.34375 2.875 -3.347656 2.6875 -3.359375 C 2.507812 -3.378906 2.347656 -3.414062 2.203125 -3.46875 Z M 2.203125 -6.84375 "/></g></g></g><g fill="#000000" fill-opacity="1"><g transform="translate(49.199345, 9.804697)"><g><path d="M 0.828125 -5.21875 L 0.828125 0 L 1.71875 0 L 1.71875 -3.15625 C 1.71875 -3.4375 1.75 -3.675781 1.8125 -3.875 C 1.882812 -4.070312 1.972656 -4.234375 2.078125 -4.359375 C 2.179688 -4.484375 2.296875 -4.570312 2.421875 -4.625 C 2.546875 -4.6875 2.664062 -4.71875 2.78125 -4.71875 C 2.945312 -4.71875 3.097656 -4.664062 3.234375 -4.5625 C 3.367188 -4.457031 3.46875 -4.359375 3.53125 -4.265625 L 3.875 -4.921875 C 3.8125 -5.003906 3.738281 -5.070312 3.65625 -5.125 C 3.570312 -5.175781 3.484375 -5.21875 3.390625 -5.25 C 3.304688 -5.28125 3.226562 -5.300781 3.15625 -5.3125 C 3.082031 -5.320312 3.03125 -5.328125 3 -5.328125 C 2.707031 -5.328125 2.460938 -5.25 2.265625 -5.09375 C 2.066406 -4.9375 1.90625 -4.703125 1.78125 -4.390625 L 1.71875 -4.390625 L 1.71875 -5.21875 Z M 0.828125 -5.21875 "/></g></g></g><g fill="#000000" fill-opacity="1"><g transform="translate(53.1877, 9.804697)"><g><path d="M 5.46875 -2.375 L 5.46875 -2.59375 C 5.46875 -3.0625 5.398438 -3.46875 5.265625 -3.8125 C 5.140625 -4.15625 4.960938 -4.4375 4.734375 -4.65625 C 4.503906 -4.875 4.238281 -5.039062 3.9375 -5.15625 C 3.644531 -5.269531 3.332031 -5.328125 3 -5.328125 C 2.644531 -5.328125 2.316406 -5.265625 2.015625 -5.140625 C 1.710938 -5.015625 1.445312 -4.835938 1.21875 -4.609375 C 1 -4.378906 0.828125 -4.097656 0.703125 -3.765625 C 0.578125 -3.429688 0.515625 -3.054688 0.515625 -2.640625 C 0.515625 -2.296875 0.566406 -1.957031 0.671875 -1.625 C 0.785156 -1.289062 0.953125 -0.992188 1.171875 -0.734375 C 1.390625 -0.472656 1.664062 -0.265625 2 -0.109375 C 2.34375 0.046875 2.742188 0.125 3.203125 0.125 C 3.648438 0.125 4.0625 0.046875 4.4375 -0.109375 C 4.8125 -0.265625 5.140625 -0.488281 5.421875 -0.78125 L 5.078125 -1.109375 C 4.929688 -0.984375 4.796875 -0.867188 4.671875 -0.765625 C 4.546875 -0.660156 4.414062 -0.570312 4.28125 -0.5 C 4.144531 -0.4375 4.003906 -0.382812 3.859375 -0.34375 C 3.722656 -0.3125 3.566406 -0.296875 3.390625 -0.296875 C 3.191406 -0.296875 2.984375 -0.320312 2.765625 -0.375 C 2.546875 -0.4375 2.34375 -0.539062 2.15625 -0.6875 C 1.96875 -0.84375 1.8125 -1.054688 1.6875 -1.328125 C 1.5625 -1.609375 1.5 -1.957031 1.5 -2.375 Z M 1.5 -2.796875 C 1.5 -3.078125 1.53125 -3.347656 1.59375 -3.609375 C 1.65625 -3.867188 1.742188 -4.097656 1.859375 -4.296875 C 1.984375 -4.503906 2.140625 -4.664062 2.328125 -4.78125 C 2.515625 -4.90625 2.738281 -4.96875 3 -4.96875 C 3.488281 -4.96875 3.867188 -4.773438 4.140625 -4.390625 C 4.421875 -4.003906 4.5625 -3.472656 4.5625 -2.796875 Z M 1.5 -2.796875 "/></g></g></g><g clip-path="url(#be8742b611)"><g fill="#000000" fill-opacity="1"><g transform="translate(59.180672, 9.804697)"><g><path d="M 0.828125 2.609375 L 1.71875 2.609375 L 1.71875 -0.859375 L 1.765625 -0.859375 C 1.835938 -0.671875 1.929688 -0.515625 2.046875 -0.390625 C 2.160156 -0.265625 2.289062 -0.164062 2.4375 -0.09375 C 2.582031 -0.0195312 2.734375 0.03125 2.890625 0.0625 C 3.054688 0.101562 3.222656 0.125 3.390625 0.125 C 3.734375 0.125 4.050781 0.0625 4.34375 -0.0625 C 4.644531 -0.195312 4.898438 -0.378906 5.109375 -0.609375 C 5.316406 -0.847656 5.476562 -1.132812 5.59375 -1.46875 C 5.71875 -1.8125 5.78125 -2.1875 5.78125 -2.59375 C 5.78125 -3.007812 5.71875 -3.382812 5.59375 -3.71875 C 5.476562 -4.0625 5.316406 -4.351562 5.109375 -4.59375 C 4.898438 -4.832031 4.644531 -5.015625 4.34375 -5.140625 C 4.050781 -5.265625 3.734375 -5.328125 3.390625 -5.328125 C 2.566406 -5.328125 2.023438 -5.007812 1.765625 -4.375 L 1.71875 -4.375 L 1.71875 -5.21875 L 0.828125 -5.21875 Z M 1.71875 -3.125 C 1.71875 -3.351562 1.753906 -3.570312 1.828125 -3.78125 C 1.898438 -3.988281 2.003906 -4.164062 2.140625 -4.3125 C 2.273438 -4.46875 2.429688 -4.585938 2.609375 -4.671875 C 2.785156 -4.753906 2.972656 -4.796875 3.171875 -4.796875 C 3.390625 -4.796875 3.597656 -4.753906 3.796875 -4.671875 C 3.992188 -4.597656 4.164062 -4.472656 4.3125 -4.296875 C 4.457031 -4.128906 4.570312 -3.90625 4.65625 -3.625 C 4.75 -3.34375 4.796875 -3.007812 4.796875 -2.625 C 4.796875 -2.226562 4.75 -1.890625 4.65625 -1.609375 C 4.570312 -1.328125 4.453125 -1.097656 4.296875 -0.921875 C 4.148438 -0.742188 3.976562 -0.613281 3.78125 -0.53125 C 3.59375 -0.457031 3.390625 -0.421875 3.171875 -0.421875 C 2.972656 -0.421875 2.785156 -0.457031 2.609375 -0.53125 C 2.441406 -0.613281 2.289062 -0.734375 2.15625 -0.890625 C 2.03125 -1.046875 1.925781 -1.234375 1.84375 -1.453125 C 1.757812 -1.679688 1.71875 -1.9375 1.71875 -2.21875 Z M 1.71875 -3.125 "/></g></g></g></g><g fill="#000000" fill-opacity="1"><g transform="translate(65.486859, 9.804697)"><g><path d="M 2.75 -5.328125 C 3.257812 -5.328125 3.65625 -5.253906 3.9375 -5.109375 C 4.21875 -4.972656 4.421875 -4.789062 4.546875 -4.5625 C 4.671875 -4.332031 4.742188 -4.066406 4.765625 -3.765625 C 4.785156 -3.460938 4.796875 -3.15625 4.796875 -2.84375 L 4.796875 0 L 3.953125 0 L 3.953125 -0.515625 C 3.753906 -0.316406 3.5 -0.160156 3.1875 -0.046875 C 2.875 0.0664062 2.5625 0.125 2.25 0.125 C 1.945312 0.125 1.679688 0.0703125 1.453125 -0.03125 C 1.222656 -0.132812 1.03125 -0.269531 0.875 -0.4375 C 0.71875 -0.601562 0.601562 -0.789062 0.53125 -1 C 0.457031 -1.207031 0.421875 -1.421875 0.421875 -1.640625 C 0.421875 -1.859375 0.460938 -2.078125 0.546875 -2.296875 C 0.628906 -2.523438 0.753906 -2.726562 0.921875 -2.90625 C 1.085938 -3.082031 1.289062 -3.222656 1.53125 -3.328125 C 1.78125 -3.441406 2.0625 -3.5 2.375 -3.5 C 2.6875 -3.5 2.984375 -3.4375 3.265625 -3.3125 C 3.546875 -3.195312 3.773438 -3.03125 3.953125 -2.8125 L 3.953125 -3.25 C 3.953125 -3.820312 3.863281 -4.25 3.6875 -4.53125 C 3.519531 -4.8125 3.210938 -4.953125 2.765625 -4.953125 C 2.566406 -4.953125 2.394531 -4.925781 2.25 -4.875 C 2.101562 -4.820312 1.972656 -4.753906 1.859375 -4.671875 C 1.742188 -4.585938 1.640625 -4.476562 1.546875 -4.34375 C 1.453125 -4.21875 1.351562 -4.070312 1.25 -3.90625 L 0.703125 -4.453125 C 0.804688 -4.554688 0.910156 -4.660156 1.015625 -4.765625 C 1.117188 -4.867188 1.25 -4.960938 1.40625 -5.046875 C 1.570312 -5.128906 1.757812 -5.195312 1.96875 -5.25 C 2.1875 -5.300781 2.445312 -5.328125 2.75 -5.328125 Z M 3.953125 -2.0625 C 3.921875 -2.144531 3.867188 -2.242188 3.796875 -2.359375 C 3.734375 -2.472656 3.648438 -2.582031 3.546875 -2.6875 C 3.441406 -2.789062 3.316406 -2.878906 3.171875 -2.953125 C 3.023438 -3.023438 2.851562 -3.0625 2.65625 -3.0625 C 2.445312 -3.0625 2.257812 -3.019531 2.09375 -2.9375 C 1.925781 -2.851562 1.785156 -2.75 1.671875 -2.625 C 1.554688 -2.5 1.46875 -2.347656 1.40625 -2.171875 C 1.34375 -1.992188 1.3125 -1.8125 1.3125 -1.625 C 1.3125 -1.40625 1.351562 -1.210938 1.4375 -1.046875 C 1.519531 -0.878906 1.625 -0.738281 1.75 -0.625 C 1.875 -0.507812 2.007812 -0.425781 2.15625 -0.375 C 2.3125 -0.320312 2.457031 -0.296875 2.59375 -0.296875 C 2.726562 -0.296875 2.863281 -0.316406 3 -0.359375 C 3.132812 -0.410156 3.257812 -0.476562 3.375 -0.5625 C 3.5 -0.65625 3.609375 -0.757812 3.703125 -0.875 C 3.804688 -0.988281 3.890625 -1.117188 3.953125 -1.265625 Z M 3.953125 -2.0625 "/></g></g></g><g fill="#000000" fill-opacity="1"><g transform="translate(71.124841, 9.804697)"><g><path d="M 0.828125 -5.21875 L 0.828125 0 L 1.71875 0 L 1.71875 -3.15625 C 1.71875 -3.4375 1.75 -3.675781 1.8125 -3.875 C 1.882812 -4.070312 1.972656 -4.234375 2.078125 -4.359375 C 2.179688 -4.484375 2.296875 -4.570312 2.421875 -4.625 C 2.546875 -4.6875 2.664062 -4.71875 2.78125 -4.71875 C 2.945312 -4.71875 3.097656 -4.664062 3.234375 -4.5625 C 3.367188 -4.457031 3.46875 -4.359375 3.53125 -4.265625 L 3.875 -4.921875 C 3.8125 -5.003906 3.738281 -5.070312 3.65625 -5.125 C 3.570312 -5.175781 3.484375 -5.21875 3.390625 -5.25 C 3.304688 -5.28125 3.226562 -5.300781 3.15625 -5.3125 C 3.082031 -5.320312 3.03125 -5.328125 3 -5.328125 C 2.707031 -5.328125 2.460938 -5.25 2.265625 -5.09375 C 2.066406 -4.9375 1.90625 -4.703125 1.78125 -4.390625 L 1.71875 -4.390625 L 1.71875 -5.21875 Z M 0.828125 -5.21875 "/></g></g></g><g fill="#000000" fill-opacity="1"><g transform="translate(75.113196, 9.804697)"><g><path d="M 5.46875 -2.375 L 5.46875 -2.59375 C 5.46875 -3.0625 5.398438 -3.46875 5.265625 -3.8125 C 5.140625 -4.15625 4.960938 -4.4375 4.734375 -4.65625 C 4.503906 -4.875 4.238281 -5.039062 3.9375 -5.15625 C 3.644531 -5.269531 3.332031 -5.328125 3 -5.328125 C 2.644531 -5.328125 2.316406 -5.265625 2.015625 -5.140625 C 1.710938 -5.015625 1.445312 -4.835938 1.21875 -4.609375 C 1 -4.378906 0.828125 -4.097656 0.703125 -3.765625 C 0.578125 -3.429688 0.515625 -3.054688 0.515625 -2.640625 C 0.515625 -2.296875 0.566406 -1.957031 0.671875 -1.625 C 0.785156 -1.289062 0.953125 -0.992188 1.171875 -0.734375 C 1.390625 -0.472656 1.664062 -0.265625 2 -0.109375 C 2.34375 0.046875 2.742188 0.125 3.203125 0.125 C 3.648438 0.125 4.0625 0.046875 4.4375 -0.109375 C 4.8125 -0.265625 5.140625 -0.488281 5.421875 -0.78125 L 5.078125 -1.109375 C 4.929688 -0.984375 4.796875 -0.867188 4.671875 -0.765625 C 4.546875 -0.660156 4.414062 -0.570312 4.28125 -0.5 C 4.144531 -0.4375 4.003906 -0.382812 3.859375 -0.34375 C 3.722656 -0.3125 3.566406 -0.296875 3.390625 -0.296875 C 3.191406 -0.296875 2.984375 -0.320312 2.765625 -0.375 C 2.546875 -0.4375 2.34375 -0.539062 2.15625 -0.6875 C 1.96875 -0.84375 1.8125 -1.054688 1.6875 -1.328125 C 1.5625 -1.609375 1.5 -1.957031 1.5 -2.375 Z M 1.5 -2.796875 C 1.5 -3.078125 1.53125 -3.347656 1.59375 -3.609375 C 1.65625 -3.867188 1.742188 -4.097656 1.859375 -4.296875 C 1.984375 -4.503906 2.140625 -4.664062 2.328125 -4.78125 C 2.515625 -4.90625 2.738281 -4.96875 3 -4.96875 C 3.488281 -4.96875 3.867188 -4.773438 4.140625 -4.390625 C 4.421875 -4.003906 4.5625 -3.472656 4.5625 -2.796875 Z M 1.5 -2.796875 "/></g></g></g><g fill="#000000" fill-opacity="1"><g transform="translate(81.106167, 9.804697)"><g><path d="M 0.828125 -0.453125 C 0.828125 -0.597656 0.882812 -0.726562 1 -0.84375 C 1.113281 -0.957031 1.25 -1.015625 1.40625 -1.015625 C 1.550781 -1.015625 1.679688 -0.957031 1.796875 -0.84375 C 1.910156 -0.726562 1.96875 -0.597656 1.96875 -0.453125 C 1.96875 -0.296875 1.910156 -0.160156 1.796875 -0.046875 C 1.679688 0.0546875 1.550781 0.109375 1.40625 0.109375 C 1.25 0.109375 1.113281 0.0546875 1 -0.046875 C 0.882812 -0.160156 0.828125 -0.296875 0.828125 -0.453125 Z M 0.828125 -0.453125 "/></g></g></g><g fill="#000000" fill-opacity="1"><g transform="translate(83.904279, 9.804697)"><g/></g></g><g fill="#000000" fill-opacity="1"><g transform="translate(87.558531, 9.804697)"><g><path d="M 2.203125 -3.046875 C 2.378906 -2.992188 2.570312 -2.953125 2.78125 -2.921875 C 2.988281 -2.890625 3.21875 -2.875 3.46875 -2.875 C 3.894531 -2.875 4.269531 -2.929688 4.59375 -3.046875 C 4.925781 -3.171875 5.203125 -3.332031 5.421875 -3.53125 C 5.640625 -3.738281 5.800781 -3.976562 5.90625 -4.25 C 6.019531 -4.519531 6.078125 -4.804688 6.078125 -5.109375 C 6.078125 -5.398438 6.03125 -5.679688 5.9375 -5.953125 C 5.84375 -6.222656 5.695312 -6.457031 5.5 -6.65625 C 5.300781 -6.851562 5.050781 -7.007812 4.75 -7.125 C 4.445312 -7.25 4.09375 -7.3125 3.6875 -7.3125 L 1.25 -7.3125 L 1.25 0 L 2.203125 0 Z M 2.203125 -6.84375 L 3.296875 -6.84375 C 3.585938 -6.84375 3.84375 -6.789062 4.0625 -6.6875 C 4.289062 -6.582031 4.476562 -6.441406 4.625 -6.265625 C 4.769531 -6.097656 4.878906 -5.910156 4.953125 -5.703125 C 5.023438 -5.492188 5.0625 -5.285156 5.0625 -5.078125 C 5.0625 -4.867188 5.023438 -4.660156 4.953125 -4.453125 C 4.890625 -4.253906 4.785156 -4.070312 4.640625 -3.90625 C 4.492188 -3.738281 4.304688 -3.601562 4.078125 -3.5 C 3.859375 -3.394531 3.59375 -3.34375 3.28125 -3.34375 C 3.070312 -3.34375 2.875 -3.347656 2.6875 -3.359375 C 2.507812 -3.378906 2.347656 -3.414062 2.203125 -3.46875 Z M 2.203125 -6.84375 "/></g></g></g><g fill="#000000" fill-opacity="1"><g transform="translate(93.958686, 9.804697)"><g><path d="M 5.46875 -2.375 L 5.46875 -2.59375 C 5.46875 -3.0625 5.398438 -3.46875 5.265625 -3.8125 C 5.140625 -4.15625 4.960938 -4.4375 4.734375 -4.65625 C 4.503906 -4.875 4.238281 -5.039062 3.9375 -5.15625 C 3.644531 -5.269531 3.332031 -5.328125 3 -5.328125 C 2.644531 -5.328125 2.316406 -5.265625 2.015625 -5.140625 C 1.710938 -5.015625 1.445312 -4.835938 1.21875 -4.609375 C 1 -4.378906 0.828125 -4.097656 0.703125 -3.765625 C 0.578125 -3.429688 0.515625 -3.054688 0.515625 -2.640625 C 0.515625 -2.296875 0.566406 -1.957031 0.671875 -1.625 C 0.785156 -1.289062 0.953125 -0.992188 1.171875 -0.734375 C 1.390625 -0.472656 1.664062 -0.265625 2 -0.109375 C 2.34375 0.046875 2.742188 0.125 3.203125 0.125 C 3.648438 0.125 4.0625 0.046875 4.4375 -0.109375 C 4.8125 -0.265625 5.140625 -0.488281 5.421875 -0.78125 L 5.078125 -1.109375 C 4.929688 -0.984375 4.796875 -0.867188 4.671875 -0.765625 C 4.546875 -0.660156 4.414062 -0.570312 4.28125 -0.5 C 4.144531 -0.4375 4.003906 -0.382812 3.859375 -0.34375 C 3.722656 -0.3125 3.566406 -0.296875 3.390625 -0.296875 C 3.191406 -0.296875 2.984375 -0.320312 2.765625 -0.375 C 2.546875 -0.4375 2.34375 -0.539062 2.15625 -0.6875 C 1.96875 -0.84375 1.8125 -1.054688 1.6875 -1.328125 C 1.5625 -1.609375 1.5 -1.957031 1.5 -2.375 Z M 1.5 -2.796875 C 1.5 -3.078125 1.53125 -3.347656 1.59375 -3.609375 C 1.65625 -3.867188 1.742188 -4.097656 1.859375 -4.296875 C 1.984375 -4.503906 2.140625 -4.664062 2.328125 -4.78125 C 2.515625 -4.90625 2.738281 -4.96875 3 -4.96875 C 3.488281 -4.96875 3.867188 -4.773438 4.140625 -4.390625 C 4.421875 -4.003906 4.5625 -3.472656 4.5625 -2.796875 Z M 1.5 -2.796875 "/></g></g></g><g fill="#000000" fill-opacity="1"><g transform="translate(99.951658, 9.804697)"><g><path d="M 0.828125 -5.21875 L 0.828125 0 L 1.71875 0 L 1.71875 -3.15625 C 1.71875 -3.4375 1.75 -3.675781 1.8125 -3.875 C 1.882812 -4.070312 1.972656 -4.234375 2.078125 -4.359375 C 2.179688 -4.484375 2.296875 -4.570312 2.421875 -4.625 C 2.546875 -4.6875 2.664062 -4.71875 2.78125 -4.71875 C 2.945312 -4.71875 3.097656 -4.664062 3.234375 -4.5625 C 3.367188 -4.457031 3.46875 -4.359375 3.53125 -4.265625 L 3.875 -4.921875 C 3.8125 -5.003906 3.738281 -5.070312 3.65625 -5.125 C 3.570312 -5.175781 3.484375 -5.21875 3.390625 -5.25 C 3.304688 -5.28125 3.226562 -5.300781 3.15625 -5.3125 C 3.082031 -5.320312 3.03125 -5.328125 3 -5.328125 C 2.707031 -5.328125 2.460938 -5.25 2.265625 -5.09375 C 2.066406 -4.9375 1.90625 -4.703125 1.78125 -4.390625 L 1.71875 -4.390625 L 1.71875 -5.21875 Z M 0.828125 -5.21875 "/></g></g></g><g fill="#000000" fill-opacity="1"><g transform="translate(103.940012, 9.804697)"><g><path d="M 0.3125 -5.21875 L 0.3125 -4.796875 L 1.21875 -4.796875 L 1.21875 0 L 2.109375 0 L 2.109375 -4.796875 L 3.375 -4.796875 L 3.375 -5.21875 L 2.109375 -5.21875 L 2.109375 -6.09375 C 2.109375 -6.175781 2.109375 -6.273438 2.109375 -6.390625 C 2.117188 -6.503906 2.140625 -6.613281 2.171875 -6.71875 C 2.210938 -6.820312 2.269531 -6.90625 2.34375 -6.96875 C 2.414062 -7.039062 2.519531 -7.078125 2.65625 -7.078125 C 2.820312 -7.078125 2.957031 -7.003906 3.0625 -6.859375 C 3.164062 -6.722656 3.253906 -6.582031 3.328125 -6.4375 L 3.78125 -6.9375 C 3.613281 -7.101562 3.441406 -7.226562 3.265625 -7.3125 C 3.085938 -7.394531 2.890625 -7.4375 2.671875 -7.4375 C 2.492188 -7.4375 2.316406 -7.40625 2.140625 -7.34375 C 1.960938 -7.28125 1.804688 -7.179688 1.671875 -7.046875 C 1.535156 -6.921875 1.425781 -6.753906 1.34375 -6.546875 C 1.257812 -6.347656 1.21875 -6.113281 1.21875 -5.84375 L 1.21875 -5.21875 Z M 0.3125 -5.21875 "/></g></g></g><g fill="#000000" fill-opacity="1"><g transform="translate(107.729989, 9.804697)"><g><path d="M 5.921875 -2.59375 C 5.921875 -2.238281 5.859375 -1.894531 5.734375 -1.5625 C 5.609375 -1.226562 5.429688 -0.9375 5.203125 -0.6875 C 4.972656 -0.4375 4.691406 -0.238281 4.359375 -0.09375 C 4.023438 0.0507812 3.65625 0.125 3.25 0.125 C 2.832031 0.125 2.453125 0.0507812 2.109375 -0.09375 C 1.773438 -0.25 1.488281 -0.453125 1.25 -0.703125 C 1.019531 -0.953125 0.835938 -1.238281 0.703125 -1.5625 C 0.578125 -1.894531 0.515625 -2.238281 0.515625 -2.59375 C 0.515625 -2.957031 0.578125 -3.304688 0.703125 -3.640625 C 0.835938 -3.972656 1.019531 -4.265625 1.25 -4.515625 C 1.488281 -4.765625 1.773438 -4.960938 2.109375 -5.109375 C 2.453125 -5.253906 2.832031 -5.328125 3.25 -5.328125 C 3.65625 -5.328125 4.023438 -5.253906 4.359375 -5.109375 C 4.691406 -4.960938 4.972656 -4.765625 5.203125 -4.515625 C 5.429688 -4.265625 5.609375 -3.972656 5.734375 -3.640625 C 5.859375 -3.304688 5.921875 -2.957031 5.921875 -2.59375 Z M 4.9375 -2.59375 C 4.9375 -3.082031 4.882812 -3.476562 4.78125 -3.78125 C 4.675781 -4.082031 4.539062 -4.316406 4.375 -4.484375 C 4.207031 -4.648438 4.019531 -4.765625 3.8125 -4.828125 C 3.613281 -4.890625 3.421875 -4.921875 3.234375 -4.921875 C 3.046875 -4.921875 2.847656 -4.890625 2.640625 -4.828125 C 2.441406 -4.765625 2.257812 -4.648438 2.09375 -4.484375 C 1.925781 -4.316406 1.785156 -4.082031 1.671875 -3.78125 C 1.566406 -3.476562 1.515625 -3.082031 1.515625 -2.59375 C 1.515625 -2.113281 1.566406 -1.722656 1.671875 -1.421875 C 1.785156 -1.117188 1.925781 -0.882812 2.09375 -0.71875 C 2.257812 -0.550781 2.441406 -0.4375 2.640625 -0.375 C 2.847656 -0.320312 3.046875 -0.296875 3.234375 -0.296875 C 3.421875 -0.296875 3.613281 -0.320312 3.8125 -0.375 C 4.019531 -0.4375 4.207031 -0.550781 4.375 -0.71875 C 4.539062 -0.882812 4.675781 -1.117188 4.78125 -1.421875 C 4.882812 -1.722656 4.9375 -2.113281 4.9375 -2.59375 Z M 4.9375 -2.59375 "/></g></g></g><g fill="#000000" fill-opacity="1"><g transform="translate(114.182353, 9.804697)"><g><path d="M 0.828125 -5.21875 L 0.828125 0 L 1.71875 0 L 1.71875 -3.15625 C 1.71875 -3.4375 1.75 -3.675781 1.8125 -3.875 C 1.882812 -4.070312 1.972656 -4.234375 2.078125 -4.359375 C 2.179688 -4.484375 2.296875 -4.570312 2.421875 -4.625 C 2.546875 -4.6875 2.664062 -4.71875 2.78125 -4.71875 C 2.945312 -4.71875 3.097656 -4.664062 3.234375 -4.5625 C 3.367188 -4.457031 3.46875 -4.359375 3.53125 -4.265625 L 3.875 -4.921875 C 3.8125 -5.003906 3.738281 -5.070312 3.65625 -5.125 C 3.570312 -5.175781 3.484375 -5.21875 3.390625 -5.25 C 3.304688 -5.28125 3.226562 -5.300781 3.15625 -5.3125 C 3.082031 -5.320312 3.03125 -5.328125 3 -5.328125 C 2.707031 -5.328125 2.460938 -5.25 2.265625 -5.09375 C 2.066406 -4.9375 1.90625 -4.703125 1.78125 -4.390625 L 1.71875 -4.390625 L 1.71875 -5.21875 Z M 0.828125 -5.21875 "/></g></g></g><g fill="#000000" fill-opacity="1"><g transform="translate(118.170708, 9.804697)"><g><path d="M 1.71875 0 L 1.71875 -2.96875 C 1.71875 -3.09375 1.726562 -3.257812 1.75 -3.46875 C 1.769531 -3.675781 1.820312 -3.878906 1.90625 -4.078125 C 2 -4.273438 2.132812 -4.441406 2.3125 -4.578125 C 2.5 -4.722656 2.753906 -4.796875 3.078125 -4.796875 C 3.316406 -4.796875 3.5 -4.742188 3.625 -4.640625 C 3.75 -4.535156 3.84375 -4.40625 3.90625 -4.25 C 3.976562 -4.101562 4.019531 -3.945312 4.03125 -3.78125 C 4.039062 -3.613281 4.046875 -3.46875 4.046875 -3.34375 L 4.046875 0 L 4.921875 0 L 4.921875 -2.96875 C 4.921875 -3.125 4.9375 -3.304688 4.96875 -3.515625 C 5 -3.734375 5.054688 -3.9375 5.140625 -4.125 C 5.234375 -4.3125 5.363281 -4.46875 5.53125 -4.59375 C 5.707031 -4.726562 5.941406 -4.796875 6.234375 -4.796875 C 6.453125 -4.796875 6.625 -4.765625 6.75 -4.703125 C 6.882812 -4.640625 6.988281 -4.546875 7.0625 -4.421875 C 7.132812 -4.296875 7.179688 -4.140625 7.203125 -3.953125 C 7.234375 -3.773438 7.25 -3.570312 7.25 -3.34375 L 7.25 0 L 8.125 0 L 8.125 -3.640625 C 8.125 -3.796875 8.109375 -3.972656 8.078125 -4.171875 C 8.046875 -4.378906 7.972656 -4.566406 7.859375 -4.734375 C 7.742188 -4.898438 7.578125 -5.039062 7.359375 -5.15625 C 7.140625 -5.269531 6.847656 -5.328125 6.484375 -5.328125 C 6.378906 -5.328125 6.253906 -5.316406 6.109375 -5.296875 C 5.972656 -5.273438 5.828125 -5.226562 5.671875 -5.15625 C 5.523438 -5.09375 5.378906 -4.992188 5.234375 -4.859375 C 5.085938 -4.734375 4.960938 -4.5625 4.859375 -4.34375 L 4.796875 -4.34375 C 4.753906 -4.457031 4.691406 -4.570312 4.609375 -4.6875 C 4.535156 -4.800781 4.4375 -4.90625 4.3125 -5 C 4.195312 -5.09375 4.054688 -5.171875 3.890625 -5.234375 C 3.734375 -5.296875 3.539062 -5.328125 3.3125 -5.328125 C 3.207031 -5.328125 3.082031 -5.316406 2.9375 -5.296875 C 2.789062 -5.273438 2.644531 -5.226562 2.5 -5.15625 C 2.351562 -5.082031 2.210938 -4.984375 2.078125 -4.859375 C 1.953125 -4.734375 1.847656 -4.570312 1.765625 -4.375 L 1.71875 -4.375 L 1.71875 -5.21875 L 0.828125 -5.21875 L 0.828125 0 Z M 1.71875 0 "/></g></g></g><g fill="#000000" fill-opacity="1"><g transform="translate(127.139283, 9.804697)"><g><path d="M 0.828125 -0.453125 C 0.828125 -0.597656 0.882812 -0.726562 1 -0.84375 C 1.113281 -0.957031 1.25 -1.015625 1.40625 -1.015625 C 1.550781 -1.015625 1.679688 -0.957031 1.796875 -0.84375 C 1.910156 -0.726562 1.96875 -0.597656 1.96875 -0.453125 C 1.96875 -0.296875 1.910156 -0.160156 1.796875 -0.046875 C 1.679688 0.0546875 1.550781 0.109375 1.40625 0.109375 C 1.25 0.109375 1.113281 0.0546875 1 -0.046875 C 0.882812 -0.160156 0.828125 -0.296875 0.828125 -0.453125 Z M 0.828125 -0.453125 "/></g></g></g></g></g></g></g></svg>