<svg xmlns:xlink="http://www.w3.org/1999/xlink" xmlns="http://www.w3.org/2000/svg" viewBox="0 0 568 150" id="logo-mon" class="logo-single-svg" width="568"  height="150" ><title>Monasterio</title><path d="M.008 2.005H13.91l15.408 24.787L44.726 2.005h13.902v58.619H45.815v-38.27L29.317 47.393h-.334l-16.33-24.787v38.018H.008V2.005zM68.421 31.482v-.168C68.421 14.65 81.568 1 99.656 1s31.068 13.482 31.068 30.147v.168c0 16.665-13.148 30.314-31.236 30.314S68.421 48.146 68.421 31.482zm48.82 0v-.168c0-10.049-7.369-18.424-17.753-18.424s-17.585 8.207-17.585 18.256v.168c0 10.049 7.369 18.423 17.753 18.423s17.585-8.207 17.585-18.255zM140.517 2.005h11.892l27.467 36.093V2.005h12.729v58.619h-10.97l-28.389-37.265v37.265h-12.729V2.005zM225.091 1.586h11.892l25.123 59.037h-13.483l-5.359-13.148h-24.787l-5.359 13.148H199.97l25.121-59.037zm13.567 34.502l-7.788-19.009-7.788 19.009h15.576zM264.613 52.082l7.621-9.128c5.276 4.354 10.802 7.118 17.501 7.118 5.276 0 8.459-2.093 8.459-5.527v-.168c0-3.266-2.01-4.941-11.808-7.453-11.808-3.015-19.428-6.28-19.428-17.921v-.168c0-10.635 8.542-17.669 20.517-17.669 8.54 0 15.827 2.68 21.773 7.453l-6.701 9.714c-5.191-3.601-10.3-5.778-15.241-5.778-4.941 0-7.536 2.261-7.536 5.108v.167c0 3.852 2.512 5.108 12.645 7.705 11.892 3.098 18.59 7.369 18.59 17.585v.168c0 11.64-8.877 18.172-21.521 18.172-8.876.001-17.837-3.097-24.871-9.378zM332.943 13.896h-17.837V2.005h48.57v11.891h-17.838v46.728h-12.896V13.896zM371.879 2.005h44.215v11.472h-31.403v11.892h27.635v11.473h-27.635v12.309h31.821v11.473h-44.634V2.005zM424.633 2.005h26.797c7.453 0 13.231 2.093 17.083 5.945 3.266 3.266 5.026 7.872 5.026 13.399v.168c0 9.463-5.109 15.409-12.562 18.172l14.32 20.936h-15.074l-12.56-18.758H437.53v18.758h-12.896V2.005zm25.959 28.472c6.28 0 9.882-3.349 9.882-8.29v-.168c0-5.527-3.852-8.374-10.133-8.374h-12.812v16.832h13.063zM484.084 2.005h12.897v58.619h-12.897V2.005zM505.688 31.482v-.168C505.688 14.65 518.836 1 536.924 1c18.087 0 31.068 13.482 31.068 30.147v.168c0 16.665-13.148 30.314-31.236 30.314s-31.068-13.483-31.068-30.147zm48.821 0v-.168c0-10.049-7.369-18.424-17.753-18.424s-17.586 8.207-17.586 18.256v.168c0 10.049 7.369 18.423 17.755 18.423 10.383 0 17.584-8.207 17.584-18.255z"></path><g><path d="M96.23 87.629h2.231l9.62 21.258h-2.564l-2.471-5.579h-11.49l-2.504 5.579H86.61l9.62-21.258zm5.88 13.538l-4.795-10.765-4.825 10.765h9.62zM134.54 87.779h8.987c2.412 0 4.311.693 5.518 1.869.873.904 1.356 2.02 1.356 3.377v.061c0 2.744-1.688 4.161-3.346 4.885 2.502.754 4.522 2.201 4.522 5.096v.059c0 3.619-3.045 5.76-7.659 5.76h-9.378V87.779zm13.448 5.579c0-2.08-1.658-3.438-4.673-3.438h-6.424v7.266h6.243c2.865 0 4.854-1.297 4.854-3.768v-.06zm-4.432 5.94h-6.665v7.448h7.086c3.197 0 5.188-1.418 5.188-3.77v-.061c.001-2.291-1.929-3.617-5.609-3.617zM164.142 87.779h15.259v2.17h-12.876v7.208h11.519v2.17h-11.519v7.389h13.027v2.17h-15.409V87.779zM190.97 87.779h2.383v18.906h11.88v2.201H190.97V87.779zM214.333 87.779h2.412l7.69 11.519 7.688-11.519h2.412v21.107h-2.381V91.789l-7.69 11.308h-.119l-7.69-11.278v17.068h-2.322V87.779zM245.593 98.393v-.061c0-5.821 4.372-10.915 10.794-10.915 6.424 0 10.735 5.036 10.735 10.855v.061c0 5.819-4.372 10.915-10.794 10.915-6.424 0-10.735-5.036-10.735-10.855zm19.057 0v-.061c0-4.795-3.497-8.715-8.321-8.715-4.825 0-8.262 3.86-8.262 8.655v.061c0 4.794 3.497 8.714 8.321 8.714s8.262-3.86 8.262-8.654zM278.782 87.779h2.232l13.298 16.916V87.779h2.321v21.107h-1.899l-13.63-17.308v17.308h-2.322V87.779zM309.228 87.779h7.329c6.633 0 11.216 4.553 11.216 10.493v.061c0 5.94-4.583 10.554-11.216 10.554h-7.329V87.779zm2.383 2.202v16.705h4.946c5.337 0 8.743-3.618 8.743-8.292v-.061c0-4.674-3.407-8.352-8.743-8.352h-4.946zM355.108 87.779h2.383v9.378h12.183v-9.378h2.381v21.107h-2.381v-9.499h-12.183v9.499h-2.383V87.779zM382.51 98.393v-.061c0-5.821 4.372-10.915 10.794-10.915 6.424 0 10.735 5.036 10.735 10.855v.061c0 5.819-4.372 10.915-10.796 10.915-6.421 0-10.733-5.036-10.733-10.855zm19.057 0v-.061c0-4.795-3.498-8.715-8.323-8.715s-8.261 3.86-8.261 8.655v.061c0 4.794 3.497 8.714 8.321 8.714s8.263-3.86 8.263-8.654zM419.832 89.981h-7.116V87.78h16.615v2.201h-7.116v18.906h-2.383V89.981zM440.298 87.779h15.259v2.17h-12.876v7.208H454.2v2.17h-11.519v7.389h13.027v2.17h-15.409V87.779zM467.127 87.779h2.383v18.906h11.88v2.201h-14.263V87.779z"></path></g><g><path d="M231.746 140.554v-.046c0-4.645 3.472-8.493 8.305-8.493 2.98 0 4.762 1.057 6.405 2.604l-1.268 1.361c-1.384-1.313-2.932-2.252-5.16-2.252-3.637 0-6.357 2.957-6.357 6.733v.047c0 3.799 2.744 6.779 6.357 6.779 2.252 0 3.729-.868 5.301-2.37l1.22 1.197c-1.712 1.735-3.588 2.885-6.568 2.885-4.739.001-8.235-3.73-8.235-8.445zM254.77 141.845v-9.548h1.853v9.432c0 3.541 1.878 5.536 5.021 5.536 3.026 0 4.951-1.83 4.951-5.42v-9.548h1.853v9.407c0 4.785-2.746 7.273-6.851 7.273-4.058 0-6.827-2.487-6.827-7.132zM276.903 146.326l1.15-1.361c1.712 1.549 3.354 2.322 5.631 2.322 2.205 0 3.659-1.173 3.659-2.792v-.047c0-1.524-.821-2.393-4.269-3.119-3.778-.821-5.513-2.041-5.513-4.74v-.046c0-2.581 2.275-4.481 5.395-4.481 2.393 0 4.105.68 5.77 2.017l-1.078 1.431c-1.526-1.243-3.05-1.783-4.74-1.783-2.134 0-3.495 1.174-3.495 2.651v.047c0 1.549.844 2.416 4.457 3.191 3.66.796 5.35 2.134 5.35 4.645v.046c0 2.816-2.347 4.645-5.606 4.645-2.606.001-4.74-.866-6.711-2.626zM297.418 140.554v-.046c0-4.645 3.472-8.493 8.305-8.493 2.98 0 4.763 1.057 6.405 2.604l-1.267 1.361c-1.384-1.313-2.932-2.252-5.16-2.252-3.637 0-6.357 2.957-6.357 6.733v.047c0 3.799 2.744 6.779 6.357 6.779 2.252 0 3.729-.868 5.301-2.37l1.22 1.197c-1.712 1.735-3.588 2.885-6.568 2.885-4.739.001-8.236-3.73-8.236-8.445zM319.504 140.554v-.046c0-4.529 3.402-8.493 8.398-8.493 4.998 0 8.352 3.919 8.352 8.446v.047c0 4.527-3.402 8.491-8.398 8.491-4.996.001-8.352-3.916-8.352-8.445zm14.827 0v-.046c0-3.731-2.721-6.781-6.475-6.781s-6.427 3.003-6.427 6.733v.047c0 3.729 2.72 6.779 6.473 6.779s6.429-3.001 6.429-6.732z"></path></g></svg>